<?xml version="1.0" encoding="utf-8" standalone="no"?>
<!DOCTYPE svg PUBLIC "-//W3C//DTD SVG 1.1//EN"
  "http://www.w3.org/Graphics/SVG/1.1/DTD/svg11.dtd">
<svg xmlns:xlink="http://www.w3.org/1999/xlink" width="720pt" height="432pt" viewBox="0 0 720 432" xmlns="http://www.w3.org/2000/svg" version="1.1">
 <metadata>
  <rdf:RDF xmlns:dc="http://purl.org/dc/elements/1.1/" xmlns:cc="http://creativecommons.org/ns#" xmlns:rdf="http://www.w3.org/1999/02/22-rdf-syntax-ns#">
   <cc:Work>
    <dc:type rdf:resource="http://purl.org/dc/dcmitype/StillImage"/>
    <dc:date>2025-04-05T21:35:44.529281</dc:date>
    <dc:format>image/svg+xml</dc:format>
    <dc:creator>
     <cc:Agent>
      <dc:title>Matplotlib v3.10.0, https://matplotlib.org/</dc:title>
     </cc:Agent>
    </dc:creator>
   </cc:Work>
  </rdf:RDF>
 </metadata>
 <defs>
  <style type="text/css">*{stroke-linejoin: round; stroke-linecap: butt}</style>
 </defs>
 <g id="figure_1">
  <g id="patch_1">
   <path d="M 0 432 
L 720 432 
L 720 0 
L 0 0 
z
" style="fill: #ffffff"/>
  </g>
  <g id="axes_1">
   <g id="patch_2">
    <path d="M 90 388.8 
L 648 388.8 
L 648 43.2 
L 90 43.2 
z
" style="fill: #ffffff"/>
   </g>
   <g id="FillBetweenPolyCollection_1">
    <defs>
     <path id="mb68f7bbba2" d="M 628.758621 -260.09913 
L 628.758621 -202.102029 
L 622.344828 -202.426372 
L 615.931034 -202.108003 
L 609.517241 -202.724628 
L 603.103448 -202.659089 
L 596.689655 -203.480711 
L 590.275862 -202.395115 
L 583.862069 -203.136058 
L 577.448276 -201.569035 
L 571.034483 -201.967447 
L 564.62069 -201.992686 
L 558.206897 -202.226203 
L 551.793103 -202.554622 
L 545.37931 -202.787373 
L 538.965517 -202.943493 
L 532.551724 -203.34019 
L 526.137931 -203.695554 
L 519.724138 -202.91892 
L 513.310345 -203.446435 
L 506.896552 -202.926342 
L 500.482759 -204.055868 
L 494.068966 -203.393234 
L 487.655172 -202.969403 
L 481.241379 -202.945287 
L 474.827586 -204.287246 
L 468.413793 -204.498658 
L 462 -204.331572 
L 455.586207 -204.632627 
L 449.172414 -204.81486 
L 442.758621 -204.664945 
L 436.344828 -204.333753 
L 429.931034 -205.975745 
L 423.517241 -205.616023 
L 417.103448 -205.375416 
L 410.689655 -204.415725 
L 404.275862 -204.983084 
L 397.862069 -205.536595 
L 391.448276 -205.491138 
L 385.034483 -204.878288 
L 378.62069 -206.138211 
L 372.206897 -206.6502 
L 365.793103 -205.741925 
L 359.37931 -205.541168 
L 352.965517 -206.246491 
L 346.551724 -207.357898 
L 340.137931 -207.354133 
L 333.724138 -207.799337 
L 327.310345 -208.028611 
L 320.896552 -210.23751 
L 314.482759 -209.60099 
L 308.068966 -208.078272 
L 301.655172 -209.17349 
L 295.241379 -209.00071 
L 288.827586 -210.027401 
L 282.413793 -209.738292 
L 276 -208.996992 
L 269.586207 -208.670346 
L 263.172414 -208.929672 
L 256.758621 -208.440029 
L 250.344828 -207.954488 
L 243.931034 -208.323854 
L 237.517241 -210.183167 
L 231.103448 -210.258087 
L 224.689655 -208.284959 
L 218.275862 -207.635083 
L 211.862069 -207.870872 
L 205.448276 -224.073241 
L 199.034483 -222.80533 
L 192.62069 -223.641973 
L 186.206897 -224.686511 
L 179.793103 -217.311553 
L 173.37931 -217.890804 
L 166.965517 -216.429708 
L 160.551724 -217.845108 
L 154.137931 -217.340521 
L 147.724138 -219.155926 
L 141.310345 -221.121588 
L 134.896552 -223.87795 
L 128.482759 -223.803774 
L 122.068966 -224.851536 
L 115.655172 -225.385772 
L 109.241379 -303.16979 
L 102.827586 -305.880307 
L 102.827586 -376.586426 
L 102.827586 -376.586426 
L 109.241379 -372.63786 
L 115.655172 -294.195789 
L 122.068966 -292.585068 
L 128.482759 -293.605539 
L 134.896552 -292.976993 
L 141.310345 -286.571897 
L 147.724138 -283.796121 
L 154.137931 -284.53766 
L 160.551724 -284.389903 
L 166.965517 -282.829005 
L 173.37931 -284.894061 
L 179.793103 -285.472778 
L 186.206897 -286.150983 
L 192.62069 -288.000226 
L 199.034483 -287.657956 
L 205.448276 -288.467789 
L 211.862069 -263.144201 
L 218.275862 -265.242435 
L 224.689655 -264.923314 
L 231.103448 -266.096046 
L 237.517241 -266.524891 
L 243.931034 -263.832475 
L 250.344828 -262.783462 
L 256.758621 -262.908285 
L 263.172414 -262.335386 
L 269.586207 -264.022858 
L 276 -264.134851 
L 282.413793 -264.547448 
L 288.827586 -263.023162 
L 295.241379 -263.692879 
L 301.655172 -263.540642 
L 308.068966 -262.790518 
L 314.482759 -264.040503 
L 320.896552 -262.115592 
L 327.310345 -264.136223 
L 333.724138 -262.171259 
L 340.137931 -262.250812 
L 346.551724 -261.488674 
L 352.965517 -261.397627 
L 359.37931 -261.893042 
L 365.793103 -261.691694 
L 372.206897 -262.45779 
L 378.62069 -262.460318 
L 385.034483 -261.622466 
L 391.448276 -262.163976 
L 397.862069 -262.536522 
L 404.275862 -261.852256 
L 410.689655 -262.270601 
L 417.103448 -262.932386 
L 423.517241 -262.897328 
L 429.931034 -261.174432 
L 436.344828 -260.29839 
L 442.758621 -261.474061 
L 449.172414 -260.666003 
L 455.586207 -261.170878 
L 462 -260.847188 
L 468.413793 -259.931711 
L 474.827586 -259.240341 
L 481.241379 -258.784818 
L 487.655172 -258.413375 
L 494.068966 -259.330357 
L 500.482759 -259.484529 
L 506.896552 -259.497828 
L 513.310345 -259.154535 
L 519.724138 -259.614593 
L 526.137931 -259.985173 
L 532.551724 -259.504194 
L 538.965517 -259.906614 
L 545.37931 -259.65061 
L 551.793103 -259.194986 
L 558.206897 -258.745431 
L 564.62069 -259.677257 
L 571.034483 -259.772797 
L 577.448276 -261.07701 
L 583.862069 -259.615005 
L 590.275862 -259.249404 
L 596.689655 -259.671444 
L 603.103448 -259.591872 
L 609.517241 -260.199882 
L 615.931034 -259.835942 
L 622.344828 -260.718019 
L 628.758621 -260.09913 
z
" style="stroke: #000000; stroke-opacity: 0.2"/>
    </defs>
    <g clip-path="url(#p128150b13f)">
     <use xlink:href="#mb68f7bbba2" x="0" y="432" style="fill-opacity: 0.2; stroke: #000000; stroke-opacity: 0.2"/>
    </g>
   </g>
   <g id="line2d_1">
    <path d="M 628.758621 200.899421 
L 622.344828 200.427804 
L 615.931034 201.028028 
L 609.517241 200.537745 
L 603.103448 200.87452 
L 596.689655 200.423922 
L 590.275862 201.177741 
L 583.862069 200.624469 
L 577.448276 200.676978 
L 571.034483 201.129878 
L 564.62069 201.165029 
L 558.206897 201.514183 
L 551.793103 201.125196 
L 545.37931 200.781009 
L 538.965517 200.574947 
L 532.551724 200.577808 
L 526.137931 200.159637 
L 519.724138 200.733243 
L 513.310345 200.699515 
L 506.896552 200.787915 
L 500.482759 200.229802 
L 494.068966 200.638204 
L 487.655172 201.308611 
L 481.241379 201.134948 
L 474.827586 200.236206 
L 468.413793 199.784815 
L 462 199.41062 
L 455.586207 199.098248 
L 449.172414 199.259568 
L 442.758621 198.930497 
L 436.344828 199.683929 
L 429.931034 198.424911 
L 423.517241 197.743325 
L 417.103448 197.846099 
L 410.689655 198.656837 
L 404.275862 198.58233 
L 397.862069 197.963442 
L 391.448276 198.172443 
L 385.034483 198.749623 
L 378.62069 197.700735 
L 372.206897 197.446005 
L 365.793103 198.28319 
L 359.37931 198.282895 
L 352.965517 198.177941 
L 346.551724 197.576714 
L 340.137931 197.197528 
L 333.724138 197.014702 
L 327.310345 195.917583 
L 320.896552 195.823449 
L 314.482759 195.179254 
L 308.068966 196.565605 
L 301.655172 195.642934 
L 295.241379 195.653206 
L 288.827586 195.474718 
L 282.413793 194.85713 
L 276 195.434079 
L 269.586207 195.653398 
L 263.172414 196.367471 
L 256.758621 196.325843 
L 250.344828 196.631025 
L 243.931034 195.921836 
L 237.517241 193.645971 
L 231.103448 193.822934 
L 224.689655 195.395864 
L 218.275862 195.561241 
L 211.862069 196.492464 
L 205.448276 175.729485 
L 199.034483 176.768357 
L 192.62069 176.1789 
L 186.206897 176.581253 
L 179.793103 180.607834 
L 173.37931 180.607567 
L 166.965517 182.370643 
L 160.551724 180.882495 
L 154.137931 181.06091 
L 147.724138 180.523976 
L 141.310345 178.153257 
L 134.896552 173.572529 
L 128.482759 173.295344 
L 122.068966 173.281698 
L 115.655172 172.209219 
L 109.241379 94.096175 
L 102.827586 90.766634 
" clip-path="url(#p128150b13f)" style="fill: none; stroke: #000000; stroke-linecap: square"/>
    <defs>
     <path id="m0e8908a1f3" d="M 0 2 
C 0.530406 2 1.03916 1.789267 1.414214 1.414214 
C 1.789267 1.03916 2 0.530406 2 0 
C 2 -0.530406 1.789267 -1.03916 1.414214 -1.414214 
C 1.03916 -1.789267 0.530406 -2 0 -2 
C -0.530406 -2 -1.03916 -1.789267 -1.414214 -1.414214 
C -1.789267 -1.03916 -2 -0.530406 -2 0 
C -2 0.530406 -1.789267 1.03916 -1.414214 1.414214 
C -1.03916 1.789267 -0.530406 2 0 2 
z
" style="stroke: #111111; stroke-width: 0.5"/>
    </defs>
    <g clip-path="url(#p128150b13f)">
     <use xlink:href="#m0e8908a1f3" x="628.758621" y="200.899421" style="stroke: #111111; stroke-width: 0.5"/>
     <use xlink:href="#m0e8908a1f3" x="622.344828" y="200.427804" style="stroke: #111111; stroke-width: 0.5"/>
     <use xlink:href="#m0e8908a1f3" x="615.931034" y="201.028028" style="stroke: #111111; stroke-width: 0.5"/>
     <use xlink:href="#m0e8908a1f3" x="609.517241" y="200.537745" style="stroke: #111111; stroke-width: 0.5"/>
     <use xlink:href="#m0e8908a1f3" x="603.103448" y="200.87452" style="stroke: #111111; stroke-width: 0.5"/>
     <use xlink:href="#m0e8908a1f3" x="596.689655" y="200.423922" style="stroke: #111111; stroke-width: 0.5"/>
     <use xlink:href="#m0e8908a1f3" x="590.275862" y="201.177741" style="stroke: #111111; stroke-width: 0.5"/>
     <use xlink:href="#m0e8908a1f3" x="583.862069" y="200.624469" style="stroke: #111111; stroke-width: 0.5"/>
     <use xlink:href="#m0e8908a1f3" x="577.448276" y="200.676978" style="stroke: #111111; stroke-width: 0.5"/>
     <use xlink:href="#m0e8908a1f3" x="571.034483" y="201.129878" style="stroke: #111111; stroke-width: 0.5"/>
     <use xlink:href="#m0e8908a1f3" x="564.62069" y="201.165029" style="stroke: #111111; stroke-width: 0.5"/>
     <use xlink:href="#m0e8908a1f3" x="558.206897" y="201.514183" style="stroke: #111111; stroke-width: 0.5"/>
     <use xlink:href="#m0e8908a1f3" x="551.793103" y="201.125196" style="stroke: #111111; stroke-width: 0.5"/>
     <use xlink:href="#m0e8908a1f3" x="545.37931" y="200.781009" style="stroke: #111111; stroke-width: 0.5"/>
     <use xlink:href="#m0e8908a1f3" x="538.965517" y="200.574947" style="stroke: #111111; stroke-width: 0.5"/>
     <use xlink:href="#m0e8908a1f3" x="532.551724" y="200.577808" style="stroke: #111111; stroke-width: 0.5"/>
     <use xlink:href="#m0e8908a1f3" x="526.137931" y="200.159637" style="stroke: #111111; stroke-width: 0.5"/>
     <use xlink:href="#m0e8908a1f3" x="519.724138" y="200.733243" style="stroke: #111111; stroke-width: 0.5"/>
     <use xlink:href="#m0e8908a1f3" x="513.310345" y="200.699515" style="stroke: #111111; stroke-width: 0.5"/>
     <use xlink:href="#m0e8908a1f3" x="506.896552" y="200.787915" style="stroke: #111111; stroke-width: 0.5"/>
     <use xlink:href="#m0e8908a1f3" x="500.482759" y="200.229802" style="stroke: #111111; stroke-width: 0.5"/>
     <use xlink:href="#m0e8908a1f3" x="494.068966" y="200.638204" style="stroke: #111111; stroke-width: 0.5"/>
     <use xlink:href="#m0e8908a1f3" x="487.655172" y="201.308611" style="stroke: #111111; stroke-width: 0.5"/>
     <use xlink:href="#m0e8908a1f3" x="481.241379" y="201.134948" style="stroke: #111111; stroke-width: 0.5"/>
     <use xlink:href="#m0e8908a1f3" x="474.827586" y="200.236206" style="stroke: #111111; stroke-width: 0.5"/>
     <use xlink:href="#m0e8908a1f3" x="468.413793" y="199.784815" style="stroke: #111111; stroke-width: 0.5"/>
     <use xlink:href="#m0e8908a1f3" x="462" y="199.41062" style="stroke: #111111; stroke-width: 0.5"/>
     <use xlink:href="#m0e8908a1f3" x="455.586207" y="199.098248" style="stroke: #111111; stroke-width: 0.5"/>
     <use xlink:href="#m0e8908a1f3" x="449.172414" y="199.259568" style="stroke: #111111; stroke-width: 0.5"/>
     <use xlink:href="#m0e8908a1f3" x="442.758621" y="198.930497" style="stroke: #111111; stroke-width: 0.5"/>
     <use xlink:href="#m0e8908a1f3" x="436.344828" y="199.683929" style="stroke: #111111; stroke-width: 0.5"/>
     <use xlink:href="#m0e8908a1f3" x="429.931034" y="198.424911" style="stroke: #111111; stroke-width: 0.5"/>
     <use xlink:href="#m0e8908a1f3" x="423.517241" y="197.743325" style="stroke: #111111; stroke-width: 0.5"/>
     <use xlink:href="#m0e8908a1f3" x="417.103448" y="197.846099" style="stroke: #111111; stroke-width: 0.5"/>
     <use xlink:href="#m0e8908a1f3" x="410.689655" y="198.656837" style="stroke: #111111; stroke-width: 0.5"/>
     <use xlink:href="#m0e8908a1f3" x="404.275862" y="198.58233" style="stroke: #111111; stroke-width: 0.5"/>
     <use xlink:href="#m0e8908a1f3" x="397.862069" y="197.963442" style="stroke: #111111; stroke-width: 0.5"/>
     <use xlink:href="#m0e8908a1f3" x="391.448276" y="198.172443" style="stroke: #111111; stroke-width: 0.5"/>
     <use xlink:href="#m0e8908a1f3" x="385.034483" y="198.749623" style="stroke: #111111; stroke-width: 0.5"/>
     <use xlink:href="#m0e8908a1f3" x="378.62069" y="197.700735" style="stroke: #111111; stroke-width: 0.5"/>
     <use xlink:href="#m0e8908a1f3" x="372.206897" y="197.446005" style="stroke: #111111; stroke-width: 0.5"/>
     <use xlink:href="#m0e8908a1f3" x="365.793103" y="198.28319" style="stroke: #111111; stroke-width: 0.5"/>
     <use xlink:href="#m0e8908a1f3" x="359.37931" y="198.282895" style="stroke: #111111; stroke-width: 0.5"/>
     <use xlink:href="#m0e8908a1f3" x="352.965517" y="198.177941" style="stroke: #111111; stroke-width: 0.5"/>
     <use xlink:href="#m0e8908a1f3" x="346.551724" y="197.576714" style="stroke: #111111; stroke-width: 0.5"/>
     <use xlink:href="#m0e8908a1f3" x="340.137931" y="197.197528" style="stroke: #111111; stroke-width: 0.5"/>
     <use xlink:href="#m0e8908a1f3" x="333.724138" y="197.014702" style="stroke: #111111; stroke-width: 0.5"/>
     <use xlink:href="#m0e8908a1f3" x="327.310345" y="195.917583" style="stroke: #111111; stroke-width: 0.5"/>
     <use xlink:href="#m0e8908a1f3" x="320.896552" y="195.823449" style="stroke: #111111; stroke-width: 0.5"/>
     <use xlink:href="#m0e8908a1f3" x="314.482759" y="195.179254" style="stroke: #111111; stroke-width: 0.5"/>
     <use xlink:href="#m0e8908a1f3" x="308.068966" y="196.565605" style="stroke: #111111; stroke-width: 0.5"/>
     <use xlink:href="#m0e8908a1f3" x="301.655172" y="195.642934" style="stroke: #111111; stroke-width: 0.5"/>
     <use xlink:href="#m0e8908a1f3" x="295.241379" y="195.653206" style="stroke: #111111; stroke-width: 0.5"/>
     <use xlink:href="#m0e8908a1f3" x="288.827586" y="195.474718" style="stroke: #111111; stroke-width: 0.5"/>
     <use xlink:href="#m0e8908a1f3" x="282.413793" y="194.85713" style="stroke: #111111; stroke-width: 0.5"/>
     <use xlink:href="#m0e8908a1f3" x="276" y="195.434079" style="stroke: #111111; stroke-width: 0.5"/>
     <use xlink:href="#m0e8908a1f3" x="269.586207" y="195.653398" style="stroke: #111111; stroke-width: 0.5"/>
     <use xlink:href="#m0e8908a1f3" x="263.172414" y="196.367471" style="stroke: #111111; stroke-width: 0.5"/>
     <use xlink:href="#m0e8908a1f3" x="256.758621" y="196.325843" style="stroke: #111111; stroke-width: 0.5"/>
     <use xlink:href="#m0e8908a1f3" x="250.344828" y="196.631025" style="stroke: #111111; stroke-width: 0.5"/>
     <use xlink:href="#m0e8908a1f3" x="243.931034" y="195.921836" style="stroke: #111111; stroke-width: 0.5"/>
     <use xlink:href="#m0e8908a1f3" x="237.517241" y="193.645971" style="stroke: #111111; stroke-width: 0.5"/>
     <use xlink:href="#m0e8908a1f3" x="231.103448" y="193.822934" style="stroke: #111111; stroke-width: 0.5"/>
     <use xlink:href="#m0e8908a1f3" x="224.689655" y="195.395864" style="stroke: #111111; stroke-width: 0.5"/>
     <use xlink:href="#m0e8908a1f3" x="218.275862" y="195.561241" style="stroke: #111111; stroke-width: 0.5"/>
     <use xlink:href="#m0e8908a1f3" x="211.862069" y="196.492464" style="stroke: #111111; stroke-width: 0.5"/>
     <use xlink:href="#m0e8908a1f3" x="205.448276" y="175.729485" style="stroke: #111111; stroke-width: 0.5"/>
     <use xlink:href="#m0e8908a1f3" x="199.034483" y="176.768357" style="stroke: #111111; stroke-width: 0.5"/>
     <use xlink:href="#m0e8908a1f3" x="192.62069" y="176.1789" style="stroke: #111111; stroke-width: 0.5"/>
     <use xlink:href="#m0e8908a1f3" x="186.206897" y="176.581253" style="stroke: #111111; stroke-width: 0.5"/>
     <use xlink:href="#m0e8908a1f3" x="179.793103" y="180.607834" style="stroke: #111111; stroke-width: 0.5"/>
     <use xlink:href="#m0e8908a1f3" x="173.37931" y="180.607567" style="stroke: #111111; stroke-width: 0.5"/>
     <use xlink:href="#m0e8908a1f3" x="166.965517" y="182.370643" style="stroke: #111111; stroke-width: 0.5"/>
     <use xlink:href="#m0e8908a1f3" x="160.551724" y="180.882495" style="stroke: #111111; stroke-width: 0.5"/>
     <use xlink:href="#m0e8908a1f3" x="154.137931" y="181.06091" style="stroke: #111111; stroke-width: 0.5"/>
     <use xlink:href="#m0e8908a1f3" x="147.724138" y="180.523976" style="stroke: #111111; stroke-width: 0.5"/>
     <use xlink:href="#m0e8908a1f3" x="141.310345" y="178.153257" style="stroke: #111111; stroke-width: 0.5"/>
     <use xlink:href="#m0e8908a1f3" x="134.896552" y="173.572529" style="stroke: #111111; stroke-width: 0.5"/>
     <use xlink:href="#m0e8908a1f3" x="128.482759" y="173.295344" style="stroke: #111111; stroke-width: 0.5"/>
     <use xlink:href="#m0e8908a1f3" x="122.068966" y="173.281698" style="stroke: #111111; stroke-width: 0.5"/>
     <use xlink:href="#m0e8908a1f3" x="115.655172" y="172.209219" style="stroke: #111111; stroke-width: 0.5"/>
     <use xlink:href="#m0e8908a1f3" x="109.241379" y="94.096175" style="stroke: #111111; stroke-width: 0.5"/>
     <use xlink:href="#m0e8908a1f3" x="102.827586" y="90.766634" style="stroke: #111111; stroke-width: 0.5"/>
    </g>
   </g>
   <g id="patch_3">
    <path d="M 90 388.8 
L 90 43.2 
" style="fill: none; stroke: #111111; stroke-linejoin: miter; stroke-linecap: square"/>
   </g>
   <g id="patch_4">
    <path d="M 648 388.8 
L 648 43.2 
" style="fill: none; stroke: #111111; stroke-linejoin: miter; stroke-linecap: square"/>
   </g>
   <g id="patch_5">
    <path d="M 90 388.8 
L 648 388.8 
" style="fill: none; stroke: #111111; stroke-linejoin: miter; stroke-linecap: square"/>
   </g>
   <g id="patch_6">
    <path d="M 90 43.2 
L 648 43.2 
" style="fill: none; stroke: #111111; stroke-linejoin: miter; stroke-linecap: square"/>
   </g>
   <g id="matplotlib.axis_1">
    <g id="xtick_1">
     <g id="line2d_2">
      <defs>
       <path id="mda0ac4c0b1" d="M 0 0 
L 0 6 
" style="stroke: #000000; stroke-width: 2"/>
      </defs>
      <g>
       <use xlink:href="#mda0ac4c0b1" x="90" y="388.8" style="stroke: #000000; stroke-width: 2"/>
      </g>
     </g>
     <g id="text_1">
      <!-- 0 -->
      <g transform="translate(85.419 409.74175) scale(0.144 -0.144)">
       <defs>
        <path id="DejaVuSans-30" d="M 2034 4250 
Q 1547 4250 1301 3770 
Q 1056 3291 1056 2328 
Q 1056 1369 1301 889 
Q 1547 409 2034 409 
Q 2525 409 2770 889 
Q 3016 1369 3016 2328 
Q 3016 3291 2770 3770 
Q 2525 4250 2034 4250 
z
M 2034 4750 
Q 2819 4750 3233 4129 
Q 3647 3509 3647 2328 
Q 3647 1150 3233 529 
Q 2819 -91 2034 -91 
Q 1250 -91 836 529 
Q 422 1150 422 2328 
Q 422 3509 836 4129 
Q 1250 4750 2034 4750 
z
" transform="scale(0.015625)"/>
       </defs>
       <use xlink:href="#DejaVuSans-30"/>
      </g>
     </g>
    </g>
    <g id="xtick_2">
     <g id="line2d_3">
      <g>
       <use xlink:href="#mda0ac4c0b1" x="154.137931" y="388.8" style="stroke: #000000; stroke-width: 2"/>
      </g>
     </g>
     <g id="text_2">
      <!-- 10 -->
      <g transform="translate(144.975931 409.74175) scale(0.144 -0.144)">
       <defs>
        <path id="DejaVuSans-31" d="M 794 531 
L 1825 531 
L 1825 4091 
L 703 3866 
L 703 4441 
L 1819 4666 
L 2450 4666 
L 2450 531 
L 3481 531 
L 3481 0 
L 794 0 
L 794 531 
z
" transform="scale(0.015625)"/>
       </defs>
       <use xlink:href="#DejaVuSans-31"/>
       <use xlink:href="#DejaVuSans-30" transform="translate(63.623047 0)"/>
      </g>
     </g>
    </g>
    <g id="xtick_3">
     <g id="line2d_4">
      <g>
       <use xlink:href="#mda0ac4c0b1" x="218.275862" y="388.8" style="stroke: #000000; stroke-width: 2"/>
      </g>
     </g>
     <g id="text_3">
      <!-- 20 -->
      <g transform="translate(209.113862 409.74175) scale(0.144 -0.144)">
       <defs>
        <path id="DejaVuSans-32" d="M 1228 531 
L 3431 531 
L 3431 0 
L 469 0 
L 469 531 
Q 828 903 1448 1529 
Q 2069 2156 2228 2338 
Q 2531 2678 2651 2914 
Q 2772 3150 2772 3378 
Q 2772 3750 2511 3984 
Q 2250 4219 1831 4219 
Q 1534 4219 1204 4116 
Q 875 4013 500 3803 
L 500 4441 
Q 881 4594 1212 4672 
Q 1544 4750 1819 4750 
Q 2544 4750 2975 4387 
Q 3406 4025 3406 3419 
Q 3406 3131 3298 2873 
Q 3191 2616 2906 2266 
Q 2828 2175 2409 1742 
Q 1991 1309 1228 531 
z
" transform="scale(0.015625)"/>
       </defs>
       <use xlink:href="#DejaVuSans-32"/>
       <use xlink:href="#DejaVuSans-30" transform="translate(63.623047 0)"/>
      </g>
     </g>
    </g>
    <g id="xtick_4">
     <g id="line2d_5">
      <g>
       <use xlink:href="#mda0ac4c0b1" x="282.413793" y="388.8" style="stroke: #000000; stroke-width: 2"/>
      </g>
     </g>
     <g id="text_4">
      <!-- 30 -->
      <g transform="translate(273.251793 409.74175) scale(0.144 -0.144)">
       <defs>
        <path id="DejaVuSans-33" d="M 2597 2516 
Q 3050 2419 3304 2112 
Q 3559 1806 3559 1356 
Q 3559 666 3084 287 
Q 2609 -91 1734 -91 
Q 1441 -91 1130 -33 
Q 819 25 488 141 
L 488 750 
Q 750 597 1062 519 
Q 1375 441 1716 441 
Q 2309 441 2620 675 
Q 2931 909 2931 1356 
Q 2931 1769 2642 2001 
Q 2353 2234 1838 2234 
L 1294 2234 
L 1294 2753 
L 1863 2753 
Q 2328 2753 2575 2939 
Q 2822 3125 2822 3475 
Q 2822 3834 2567 4026 
Q 2313 4219 1838 4219 
Q 1578 4219 1281 4162 
Q 984 4106 628 3988 
L 628 4550 
Q 988 4650 1302 4700 
Q 1616 4750 1894 4750 
Q 2613 4750 3031 4423 
Q 3450 4097 3450 3541 
Q 3450 3153 3228 2886 
Q 3006 2619 2597 2516 
z
" transform="scale(0.015625)"/>
       </defs>
       <use xlink:href="#DejaVuSans-33"/>
       <use xlink:href="#DejaVuSans-30" transform="translate(63.623047 0)"/>
      </g>
     </g>
    </g>
    <g id="xtick_5">
     <g id="line2d_6">
      <g>
       <use xlink:href="#mda0ac4c0b1" x="346.551724" y="388.8" style="stroke: #000000; stroke-width: 2"/>
      </g>
     </g>
     <g id="text_5">
      <!-- 40 -->
      <g transform="translate(337.389724 409.74175) scale(0.144 -0.144)">
       <defs>
        <path id="DejaVuSans-34" d="M 2419 4116 
L 825 1625 
L 2419 1625 
L 2419 4116 
z
M 2253 4666 
L 3047 4666 
L 3047 1625 
L 3713 1625 
L 3713 1100 
L 3047 1100 
L 3047 0 
L 2419 0 
L 2419 1100 
L 313 1100 
L 313 1709 
L 2253 4666 
z
" transform="scale(0.015625)"/>
       </defs>
       <use xlink:href="#DejaVuSans-34"/>
       <use xlink:href="#DejaVuSans-30" transform="translate(63.623047 0)"/>
      </g>
     </g>
    </g>
    <g id="xtick_6">
     <g id="line2d_7">
      <g>
       <use xlink:href="#mda0ac4c0b1" x="410.689655" y="388.8" style="stroke: #000000; stroke-width: 2"/>
      </g>
     </g>
     <g id="text_6">
      <!-- 50 -->
      <g transform="translate(401.527655 409.74175) scale(0.144 -0.144)">
       <defs>
        <path id="DejaVuSans-35" d="M 691 4666 
L 3169 4666 
L 3169 4134 
L 1269 4134 
L 1269 2991 
Q 1406 3038 1543 3061 
Q 1681 3084 1819 3084 
Q 2600 3084 3056 2656 
Q 3513 2228 3513 1497 
Q 3513 744 3044 326 
Q 2575 -91 1722 -91 
Q 1428 -91 1123 -41 
Q 819 9 494 109 
L 494 744 
Q 775 591 1075 516 
Q 1375 441 1709 441 
Q 2250 441 2565 725 
Q 2881 1009 2881 1497 
Q 2881 1984 2565 2268 
Q 2250 2553 1709 2553 
Q 1456 2553 1204 2497 
Q 953 2441 691 2322 
L 691 4666 
z
" transform="scale(0.015625)"/>
       </defs>
       <use xlink:href="#DejaVuSans-35"/>
       <use xlink:href="#DejaVuSans-30" transform="translate(63.623047 0)"/>
      </g>
     </g>
    </g>
    <g id="xtick_7">
     <g id="line2d_8">
      <g>
       <use xlink:href="#mda0ac4c0b1" x="474.827586" y="388.8" style="stroke: #000000; stroke-width: 2"/>
      </g>
     </g>
     <g id="text_7">
      <!-- 60 -->
      <g transform="translate(465.665586 409.74175) scale(0.144 -0.144)">
       <defs>
        <path id="DejaVuSans-36" d="M 2113 2584 
Q 1688 2584 1439 2293 
Q 1191 2003 1191 1497 
Q 1191 994 1439 701 
Q 1688 409 2113 409 
Q 2538 409 2786 701 
Q 3034 994 3034 1497 
Q 3034 2003 2786 2293 
Q 2538 2584 2113 2584 
z
M 3366 4563 
L 3366 3988 
Q 3128 4100 2886 4159 
Q 2644 4219 2406 4219 
Q 1781 4219 1451 3797 
Q 1122 3375 1075 2522 
Q 1259 2794 1537 2939 
Q 1816 3084 2150 3084 
Q 2853 3084 3261 2657 
Q 3669 2231 3669 1497 
Q 3669 778 3244 343 
Q 2819 -91 2113 -91 
Q 1303 -91 875 529 
Q 447 1150 447 2328 
Q 447 3434 972 4092 
Q 1497 4750 2381 4750 
Q 2619 4750 2861 4703 
Q 3103 4656 3366 4563 
z
" transform="scale(0.015625)"/>
       </defs>
       <use xlink:href="#DejaVuSans-36"/>
       <use xlink:href="#DejaVuSans-30" transform="translate(63.623047 0)"/>
      </g>
     </g>
    </g>
    <g id="xtick_8">
     <g id="line2d_9">
      <g>
       <use xlink:href="#mda0ac4c0b1" x="538.965517" y="388.8" style="stroke: #000000; stroke-width: 2"/>
      </g>
     </g>
     <g id="text_8">
      <!-- 70 -->
      <g transform="translate(529.803517 409.74175) scale(0.144 -0.144)">
       <defs>
        <path id="DejaVuSans-37" d="M 525 4666 
L 3525 4666 
L 3525 4397 
L 1831 0 
L 1172 0 
L 2766 4134 
L 525 4134 
L 525 4666 
z
" transform="scale(0.015625)"/>
       </defs>
       <use xlink:href="#DejaVuSans-37"/>
       <use xlink:href="#DejaVuSans-30" transform="translate(63.623047 0)"/>
      </g>
     </g>
    </g>
    <g id="xtick_9">
     <g id="line2d_10">
      <g>
       <use xlink:href="#mda0ac4c0b1" x="603.103448" y="388.8" style="stroke: #000000; stroke-width: 2"/>
      </g>
     </g>
     <g id="text_9">
      <!-- 80 -->
      <g transform="translate(593.941448 409.74175) scale(0.144 -0.144)">
       <defs>
        <path id="DejaVuSans-38" d="M 2034 2216 
Q 1584 2216 1326 1975 
Q 1069 1734 1069 1313 
Q 1069 891 1326 650 
Q 1584 409 2034 409 
Q 2484 409 2743 651 
Q 3003 894 3003 1313 
Q 3003 1734 2745 1975 
Q 2488 2216 2034 2216 
z
M 1403 2484 
Q 997 2584 770 2862 
Q 544 3141 544 3541 
Q 544 4100 942 4425 
Q 1341 4750 2034 4750 
Q 2731 4750 3128 4425 
Q 3525 4100 3525 3541 
Q 3525 3141 3298 2862 
Q 3072 2584 2669 2484 
Q 3125 2378 3379 2068 
Q 3634 1759 3634 1313 
Q 3634 634 3220 271 
Q 2806 -91 2034 -91 
Q 1263 -91 848 271 
Q 434 634 434 1313 
Q 434 1759 690 2068 
Q 947 2378 1403 2484 
z
M 1172 3481 
Q 1172 3119 1398 2916 
Q 1625 2713 2034 2713 
Q 2441 2713 2670 2916 
Q 2900 3119 2900 3481 
Q 2900 3844 2670 4047 
Q 2441 4250 2034 4250 
Q 1625 4250 1398 4047 
Q 1172 3844 1172 3481 
z
" transform="scale(0.015625)"/>
       </defs>
       <use xlink:href="#DejaVuSans-38"/>
       <use xlink:href="#DejaVuSans-30" transform="translate(63.623047 0)"/>
      </g>
     </g>
    </g>
    <g id="text_10">
     <!-- Number of Features -->
     <g transform="translate(301.506562 426.854625) scale(0.12 -0.12)">
      <defs>
       <path id="DejaVuSans-Bold-4e" d="M 588 4666 
L 1931 4666 
L 3628 1466 
L 3628 4666 
L 4769 4666 
L 4769 0 
L 3425 0 
L 1728 3200 
L 1728 0 
L 588 0 
L 588 4666 
z
" transform="scale(0.015625)"/>
       <path id="DejaVuSans-Bold-75" d="M 500 1363 
L 500 3500 
L 1625 3500 
L 1625 3150 
Q 1625 2866 1622 2436 
Q 1619 2006 1619 1863 
Q 1619 1441 1641 1255 
Q 1663 1069 1716 984 
Q 1784 875 1895 815 
Q 2006 756 2150 756 
Q 2500 756 2700 1025 
Q 2900 1294 2900 1772 
L 2900 3500 
L 4019 3500 
L 4019 0 
L 2900 0 
L 2900 506 
Q 2647 200 2364 54 
Q 2081 -91 1741 -91 
Q 1134 -91 817 281 
Q 500 653 500 1363 
z
" transform="scale(0.015625)"/>
       <path id="DejaVuSans-Bold-6d" d="M 3781 2919 
Q 3994 3244 4286 3414 
Q 4578 3584 4928 3584 
Q 5531 3584 5847 3212 
Q 6163 2841 6163 2131 
L 6163 0 
L 5038 0 
L 5038 1825 
Q 5041 1866 5042 1909 
Q 5044 1953 5044 2034 
Q 5044 2406 4934 2573 
Q 4825 2741 4581 2741 
Q 4263 2741 4089 2478 
Q 3916 2216 3909 1719 
L 3909 0 
L 2784 0 
L 2784 1825 
Q 2784 2406 2684 2573 
Q 2584 2741 2328 2741 
Q 2006 2741 1831 2477 
Q 1656 2213 1656 1722 
L 1656 0 
L 531 0 
L 531 3500 
L 1656 3500 
L 1656 2988 
Q 1863 3284 2130 3434 
Q 2397 3584 2719 3584 
Q 3081 3584 3359 3409 
Q 3638 3234 3781 2919 
z
" transform="scale(0.015625)"/>
       <path id="DejaVuSans-Bold-62" d="M 2400 722 
Q 2759 722 2948 984 
Q 3138 1247 3138 1747 
Q 3138 2247 2948 2509 
Q 2759 2772 2400 2772 
Q 2041 2772 1848 2508 
Q 1656 2244 1656 1747 
Q 1656 1250 1848 986 
Q 2041 722 2400 722 
z
M 1656 2988 
Q 1888 3294 2169 3439 
Q 2450 3584 2816 3584 
Q 3463 3584 3878 3070 
Q 4294 2556 4294 1747 
Q 4294 938 3878 423 
Q 3463 -91 2816 -91 
Q 2450 -91 2169 54 
Q 1888 200 1656 506 
L 1656 0 
L 538 0 
L 538 4863 
L 1656 4863 
L 1656 2988 
z
" transform="scale(0.015625)"/>
       <path id="DejaVuSans-Bold-65" d="M 4031 1759 
L 4031 1441 
L 1416 1441 
Q 1456 1047 1700 850 
Q 1944 653 2381 653 
Q 2734 653 3104 758 
Q 3475 863 3866 1075 
L 3866 213 
Q 3469 63 3072 -14 
Q 2675 -91 2278 -91 
Q 1328 -91 801 392 
Q 275 875 275 1747 
Q 275 2603 792 3093 
Q 1309 3584 2216 3584 
Q 3041 3584 3536 3087 
Q 4031 2591 4031 1759 
z
M 2881 2131 
Q 2881 2450 2695 2645 
Q 2509 2841 2209 2841 
Q 1884 2841 1681 2658 
Q 1478 2475 1428 2131 
L 2881 2131 
z
" transform="scale(0.015625)"/>
       <path id="DejaVuSans-Bold-72" d="M 3138 2547 
Q 2991 2616 2845 2648 
Q 2700 2681 2553 2681 
Q 2122 2681 1889 2404 
Q 1656 2128 1656 1613 
L 1656 0 
L 538 0 
L 538 3500 
L 1656 3500 
L 1656 2925 
Q 1872 3269 2151 3426 
Q 2431 3584 2822 3584 
Q 2878 3584 2943 3579 
Q 3009 3575 3134 3559 
L 3138 2547 
z
" transform="scale(0.015625)"/>
       <path id="DejaVuSans-Bold-20" transform="scale(0.015625)"/>
       <path id="DejaVuSans-Bold-6f" d="M 2203 2784 
Q 1831 2784 1636 2517 
Q 1441 2250 1441 1747 
Q 1441 1244 1636 976 
Q 1831 709 2203 709 
Q 2569 709 2762 976 
Q 2956 1244 2956 1747 
Q 2956 2250 2762 2517 
Q 2569 2784 2203 2784 
z
M 2203 3584 
Q 3106 3584 3614 3096 
Q 4122 2609 4122 1747 
Q 4122 884 3614 396 
Q 3106 -91 2203 -91 
Q 1297 -91 786 396 
Q 275 884 275 1747 
Q 275 2609 786 3096 
Q 1297 3584 2203 3584 
z
" transform="scale(0.015625)"/>
       <path id="DejaVuSans-Bold-66" d="M 2841 4863 
L 2841 4128 
L 2222 4128 
Q 1984 4128 1890 4042 
Q 1797 3956 1797 3744 
L 1797 3500 
L 2753 3500 
L 2753 2700 
L 1797 2700 
L 1797 0 
L 678 0 
L 678 2700 
L 122 2700 
L 122 3500 
L 678 3500 
L 678 3744 
Q 678 4316 997 4589 
Q 1316 4863 1984 4863 
L 2841 4863 
z
" transform="scale(0.015625)"/>
       <path id="DejaVuSans-Bold-46" d="M 588 4666 
L 3834 4666 
L 3834 3756 
L 1791 3756 
L 1791 2888 
L 3713 2888 
L 3713 1978 
L 1791 1978 
L 1791 0 
L 588 0 
L 588 4666 
z
" transform="scale(0.015625)"/>
       <path id="DejaVuSans-Bold-61" d="M 2106 1575 
Q 1756 1575 1579 1456 
Q 1403 1338 1403 1106 
Q 1403 894 1545 773 
Q 1688 653 1941 653 
Q 2256 653 2472 879 
Q 2688 1106 2688 1447 
L 2688 1575 
L 2106 1575 
z
M 3816 1997 
L 3816 0 
L 2688 0 
L 2688 519 
Q 2463 200 2181 54 
Q 1900 -91 1497 -91 
Q 953 -91 614 226 
Q 275 544 275 1050 
Q 275 1666 698 1953 
Q 1122 2241 2028 2241 
L 2688 2241 
L 2688 2328 
Q 2688 2594 2478 2717 
Q 2269 2841 1825 2841 
Q 1466 2841 1156 2769 
Q 847 2697 581 2553 
L 581 3406 
Q 941 3494 1303 3539 
Q 1666 3584 2028 3584 
Q 2975 3584 3395 3211 
Q 3816 2838 3816 1997 
z
" transform="scale(0.015625)"/>
       <path id="DejaVuSans-Bold-74" d="M 1759 4494 
L 1759 3500 
L 2913 3500 
L 2913 2700 
L 1759 2700 
L 1759 1216 
Q 1759 972 1856 886 
Q 1953 800 2241 800 
L 2816 800 
L 2816 0 
L 1856 0 
Q 1194 0 917 276 
Q 641 553 641 1216 
L 641 2700 
L 84 2700 
L 84 3500 
L 641 3500 
L 641 4494 
L 1759 4494 
z
" transform="scale(0.015625)"/>
       <path id="DejaVuSans-Bold-73" d="M 3272 3391 
L 3272 2541 
Q 2913 2691 2578 2766 
Q 2244 2841 1947 2841 
Q 1628 2841 1473 2761 
Q 1319 2681 1319 2516 
Q 1319 2381 1436 2309 
Q 1553 2238 1856 2203 
L 2053 2175 
Q 2913 2066 3209 1816 
Q 3506 1566 3506 1031 
Q 3506 472 3093 190 
Q 2681 -91 1863 -91 
Q 1516 -91 1145 -36 
Q 775 19 384 128 
L 384 978 
Q 719 816 1070 734 
Q 1422 653 1784 653 
Q 2113 653 2278 743 
Q 2444 834 2444 1013 
Q 2444 1163 2330 1236 
Q 2216 1309 1875 1350 
L 1678 1375 
Q 931 1469 631 1722 
Q 331 1975 331 2491 
Q 331 3047 712 3315 
Q 1094 3584 1881 3584 
Q 2191 3584 2531 3537 
Q 2872 3491 3272 3391 
z
" transform="scale(0.015625)"/>
      </defs>
      <use xlink:href="#DejaVuSans-Bold-4e"/>
      <use xlink:href="#DejaVuSans-Bold-75" transform="translate(83.691406 0)"/>
      <use xlink:href="#DejaVuSans-Bold-6d" transform="translate(154.882812 0)"/>
      <use xlink:href="#DejaVuSans-Bold-62" transform="translate(259.082031 0)"/>
      <use xlink:href="#DejaVuSans-Bold-65" transform="translate(330.664062 0)"/>
      <use xlink:href="#DejaVuSans-Bold-72" transform="translate(398.486328 0)"/>
      <use xlink:href="#DejaVuSans-Bold-20" transform="translate(447.802734 0)"/>
      <use xlink:href="#DejaVuSans-Bold-6f" transform="translate(482.617188 0)"/>
      <use xlink:href="#DejaVuSans-Bold-66" transform="translate(551.318359 0)"/>
      <use xlink:href="#DejaVuSans-Bold-20" transform="translate(594.824219 0)"/>
      <use xlink:href="#DejaVuSans-Bold-46" transform="translate(629.638672 0)"/>
      <use xlink:href="#DejaVuSans-Bold-65" transform="translate(693.949219 0)"/>
      <use xlink:href="#DejaVuSans-Bold-61" transform="translate(761.771484 0)"/>
      <use xlink:href="#DejaVuSans-Bold-74" transform="translate(829.251953 0)"/>
      <use xlink:href="#DejaVuSans-Bold-75" transform="translate(877.054688 0)"/>
      <use xlink:href="#DejaVuSans-Bold-72" transform="translate(948.246094 0)"/>
      <use xlink:href="#DejaVuSans-Bold-65" transform="translate(997.5625 0)"/>
      <use xlink:href="#DejaVuSans-Bold-73" transform="translate(1065.384766 0)"/>
     </g>
    </g>
   </g>
   <g id="matplotlib.axis_2">
    <g id="ytick_1">
     <g id="line2d_11">
      <defs>
       <path id="m1632a3235e" d="M 0 0 
L -6 0 
" style="stroke: #000000; stroke-width: 2"/>
      </defs>
      <g>
       <use xlink:href="#m1632a3235e" x="90" y="388.8" style="stroke: #000000; stroke-width: 2"/>
      </g>
     </g>
     <g id="text_11">
      <!-- 0.0 -->
      <g transform="translate(57.0995 392.7735) scale(0.144 -0.144)">
       <defs>
        <path id="DejaVuSans-2e" d="M 684 794 
L 1344 794 
L 1344 0 
L 684 0 
L 684 794 
z
" transform="scale(0.015625)"/>
       </defs>
       <use xlink:href="#DejaVuSans-30"/>
       <use xlink:href="#DejaVuSans-2e" transform="translate(63.623047 0)"/>
       <use xlink:href="#DejaVuSans-30" transform="translate(95.410156 0)"/>
      </g>
     </g>
    </g>
    <g id="ytick_2">
     <g id="line2d_12">
      <g>
       <use xlink:href="#m1632a3235e" x="90" y="350.4" style="stroke: #000000; stroke-width: 2"/>
      </g>
     </g>
     <g id="text_12">
      <!-- 0.5 -->
      <g transform="translate(57.0995 354.3735) scale(0.144 -0.144)">
       <use xlink:href="#DejaVuSans-30"/>
       <use xlink:href="#DejaVuSans-2e" transform="translate(63.623047 0)"/>
       <use xlink:href="#DejaVuSans-35" transform="translate(95.410156 0)"/>
      </g>
     </g>
    </g>
    <g id="ytick_3">
     <g id="line2d_13">
      <g>
       <use xlink:href="#m1632a3235e" x="90" y="312" style="stroke: #000000; stroke-width: 2"/>
      </g>
     </g>
     <g id="text_13">
      <!-- 1.0 -->
      <g transform="translate(57.0995 315.9735) scale(0.144 -0.144)">
       <use xlink:href="#DejaVuSans-31"/>
       <use xlink:href="#DejaVuSans-2e" transform="translate(63.623047 0)"/>
       <use xlink:href="#DejaVuSans-30" transform="translate(95.410156 0)"/>
      </g>
     </g>
    </g>
    <g id="ytick_4">
     <g id="line2d_14">
      <g>
       <use xlink:href="#m1632a3235e" x="90" y="273.6" style="stroke: #000000; stroke-width: 2"/>
      </g>
     </g>
     <g id="text_14">
      <!-- 1.5 -->
      <g transform="translate(57.0995 277.5735) scale(0.144 -0.144)">
       <use xlink:href="#DejaVuSans-31"/>
       <use xlink:href="#DejaVuSans-2e" transform="translate(63.623047 0)"/>
       <use xlink:href="#DejaVuSans-35" transform="translate(95.410156 0)"/>
      </g>
     </g>
    </g>
    <g id="ytick_5">
     <g id="line2d_15">
      <g>
       <use xlink:href="#m1632a3235e" x="90" y="235.2" style="stroke: #000000; stroke-width: 2"/>
      </g>
     </g>
     <g id="text_15">
      <!-- 2.0 -->
      <g transform="translate(57.0995 239.1735) scale(0.144 -0.144)">
       <use xlink:href="#DejaVuSans-32"/>
       <use xlink:href="#DejaVuSans-2e" transform="translate(63.623047 0)"/>
       <use xlink:href="#DejaVuSans-30" transform="translate(95.410156 0)"/>
      </g>
     </g>
    </g>
    <g id="ytick_6">
     <g id="line2d_16">
      <g>
       <use xlink:href="#m1632a3235e" x="90" y="196.8" style="stroke: #000000; stroke-width: 2"/>
      </g>
     </g>
     <g id="text_16">
      <!-- 2.5 -->
      <g transform="translate(57.0995 200.7735) scale(0.144 -0.144)">
       <use xlink:href="#DejaVuSans-32"/>
       <use xlink:href="#DejaVuSans-2e" transform="translate(63.623047 0)"/>
       <use xlink:href="#DejaVuSans-35" transform="translate(95.410156 0)"/>
      </g>
     </g>
    </g>
    <g id="ytick_7">
     <g id="line2d_17">
      <g>
       <use xlink:href="#m1632a3235e" x="90" y="158.4" style="stroke: #000000; stroke-width: 2"/>
      </g>
     </g>
     <g id="text_17">
      <!-- 3.0 -->
      <g transform="translate(57.0995 162.3735) scale(0.144 -0.144)">
       <use xlink:href="#DejaVuSans-33"/>
       <use xlink:href="#DejaVuSans-2e" transform="translate(63.623047 0)"/>
       <use xlink:href="#DejaVuSans-30" transform="translate(95.410156 0)"/>
      </g>
     </g>
    </g>
    <g id="ytick_8">
     <g id="line2d_18">
      <g>
       <use xlink:href="#m1632a3235e" x="90" y="120" style="stroke: #000000; stroke-width: 2"/>
      </g>
     </g>
     <g id="text_18">
      <!-- 3.5 -->
      <g transform="translate(57.0995 123.9735) scale(0.144 -0.144)">
       <use xlink:href="#DejaVuSans-33"/>
       <use xlink:href="#DejaVuSans-2e" transform="translate(63.623047 0)"/>
       <use xlink:href="#DejaVuSans-35" transform="translate(95.410156 0)"/>
      </g>
     </g>
    </g>
    <g id="ytick_9">
     <g id="line2d_19">
      <g>
       <use xlink:href="#m1632a3235e" x="90" y="81.6" style="stroke: #000000; stroke-width: 2"/>
      </g>
     </g>
     <g id="text_19">
      <!-- 4.0 -->
      <g transform="translate(57.0995 85.5735) scale(0.144 -0.144)">
       <use xlink:href="#DejaVuSans-34"/>
       <use xlink:href="#DejaVuSans-2e" transform="translate(63.623047 0)"/>
       <use xlink:href="#DejaVuSans-30" transform="translate(95.410156 0)"/>
      </g>
     </g>
    </g>
    <g id="ytick_10">
     <g id="line2d_20">
      <g>
       <use xlink:href="#m1632a3235e" x="90" y="43.2" style="stroke: #000000; stroke-width: 2"/>
      </g>
     </g>
     <g id="text_20">
      <!-- 4.5 -->
      <g transform="translate(57.0995 47.1735) scale(0.144 -0.144)">
       <use xlink:href="#DejaVuSans-34"/>
       <use xlink:href="#DejaVuSans-2e" transform="translate(63.623047 0)"/>
       <use xlink:href="#DejaVuSans-35" transform="translate(95.410156 0)"/>
      </g>
     </g>
    </g>
    <g id="text_21">
     <!-- Negative Mean Squared Error -->
     <g transform="translate(49.510125 316.32375) rotate(-90) scale(0.12 -0.12)">
      <defs>
       <path id="DejaVuSans-Bold-67" d="M 2919 594 
Q 2688 288 2409 144 
Q 2131 0 1766 0 
Q 1125 0 706 504 
Q 288 1009 288 1791 
Q 288 2575 706 3076 
Q 1125 3578 1766 3578 
Q 2131 3578 2409 3434 
Q 2688 3291 2919 2981 
L 2919 3500 
L 4044 3500 
L 4044 353 
Q 4044 -491 3511 -936 
Q 2978 -1381 1966 -1381 
Q 1638 -1381 1331 -1331 
Q 1025 -1281 716 -1178 
L 716 -306 
Q 1009 -475 1290 -558 
Q 1572 -641 1856 -641 
Q 2406 -641 2662 -400 
Q 2919 -159 2919 353 
L 2919 594 
z
M 2181 2772 
Q 1834 2772 1640 2515 
Q 1447 2259 1447 1791 
Q 1447 1309 1634 1061 
Q 1822 813 2181 813 
Q 2531 813 2725 1069 
Q 2919 1325 2919 1791 
Q 2919 2259 2725 2515 
Q 2531 2772 2181 2772 
z
" transform="scale(0.015625)"/>
       <path id="DejaVuSans-Bold-69" d="M 538 3500 
L 1656 3500 
L 1656 0 
L 538 0 
L 538 3500 
z
M 538 4863 
L 1656 4863 
L 1656 3950 
L 538 3950 
L 538 4863 
z
" transform="scale(0.015625)"/>
       <path id="DejaVuSans-Bold-76" d="M 97 3500 
L 1216 3500 
L 2088 1081 
L 2956 3500 
L 4078 3500 
L 2700 0 
L 1472 0 
L 97 3500 
z
" transform="scale(0.015625)"/>
       <path id="DejaVuSans-Bold-4d" d="M 588 4666 
L 2119 4666 
L 3181 2169 
L 4250 4666 
L 5778 4666 
L 5778 0 
L 4641 0 
L 4641 3413 
L 3566 897 
L 2803 897 
L 1728 3413 
L 1728 0 
L 588 0 
L 588 4666 
z
" transform="scale(0.015625)"/>
       <path id="DejaVuSans-Bold-6e" d="M 4056 2131 
L 4056 0 
L 2931 0 
L 2931 347 
L 2931 1631 
Q 2931 2084 2911 2256 
Q 2891 2428 2841 2509 
Q 2775 2619 2662 2680 
Q 2550 2741 2406 2741 
Q 2056 2741 1856 2470 
Q 1656 2200 1656 1722 
L 1656 0 
L 538 0 
L 538 3500 
L 1656 3500 
L 1656 2988 
Q 1909 3294 2193 3439 
Q 2478 3584 2822 3584 
Q 3428 3584 3742 3212 
Q 4056 2841 4056 2131 
z
" transform="scale(0.015625)"/>
       <path id="DejaVuSans-Bold-53" d="M 3834 4519 
L 3834 3531 
Q 3450 3703 3084 3790 
Q 2719 3878 2394 3878 
Q 1963 3878 1756 3759 
Q 1550 3641 1550 3391 
Q 1550 3203 1689 3098 
Q 1828 2994 2194 2919 
L 2706 2816 
Q 3484 2659 3812 2340 
Q 4141 2022 4141 1434 
Q 4141 663 3683 286 
Q 3225 -91 2284 -91 
Q 1841 -91 1394 -6 
Q 947 78 500 244 
L 500 1259 
Q 947 1022 1364 901 
Q 1781 781 2169 781 
Q 2563 781 2772 912 
Q 2981 1044 2981 1288 
Q 2981 1506 2839 1625 
Q 2697 1744 2272 1838 
L 1806 1941 
Q 1106 2091 782 2419 
Q 459 2747 459 3303 
Q 459 4000 909 4375 
Q 1359 4750 2203 4750 
Q 2588 4750 2994 4692 
Q 3400 4634 3834 4519 
z
" transform="scale(0.015625)"/>
       <path id="DejaVuSans-Bold-71" d="M 2181 2772 
Q 1825 2772 1636 2509 
Q 1447 2247 1447 1747 
Q 1447 1247 1636 984 
Q 1825 722 2181 722 
Q 2541 722 2730 984 
Q 2919 1247 2919 1747 
Q 2919 2247 2730 2509 
Q 2541 2772 2181 2772 
z
M 2919 506 
Q 2688 197 2409 53 
Q 2131 -91 1766 -91 
Q 1119 -91 703 423 
Q 288 938 288 1747 
Q 288 2556 703 3067 
Q 1119 3578 1766 3578 
Q 2131 3578 2409 3434 
Q 2688 3291 2919 2981 
L 2919 3500 
L 4044 3500 
L 4044 -1331 
L 2919 -1331 
L 2919 506 
z
" transform="scale(0.015625)"/>
       <path id="DejaVuSans-Bold-64" d="M 2919 2988 
L 2919 4863 
L 4044 4863 
L 4044 0 
L 2919 0 
L 2919 506 
Q 2688 197 2409 53 
Q 2131 -91 1766 -91 
Q 1119 -91 703 423 
Q 288 938 288 1747 
Q 288 2556 703 3070 
Q 1119 3584 1766 3584 
Q 2128 3584 2408 3439 
Q 2688 3294 2919 2988 
z
M 2181 722 
Q 2541 722 2730 984 
Q 2919 1247 2919 1747 
Q 2919 2247 2730 2509 
Q 2541 2772 2181 2772 
Q 1825 2772 1636 2509 
Q 1447 2247 1447 1747 
Q 1447 1247 1636 984 
Q 1825 722 2181 722 
z
" transform="scale(0.015625)"/>
       <path id="DejaVuSans-Bold-45" d="M 588 4666 
L 3834 4666 
L 3834 3756 
L 1791 3756 
L 1791 2888 
L 3713 2888 
L 3713 1978 
L 1791 1978 
L 1791 909 
L 3903 909 
L 3903 0 
L 588 0 
L 588 4666 
z
" transform="scale(0.015625)"/>
      </defs>
      <use xlink:href="#DejaVuSans-Bold-4e"/>
      <use xlink:href="#DejaVuSans-Bold-65" transform="translate(83.691406 0)"/>
      <use xlink:href="#DejaVuSans-Bold-67" transform="translate(151.513672 0)"/>
      <use xlink:href="#DejaVuSans-Bold-61" transform="translate(223.095703 0)"/>
      <use xlink:href="#DejaVuSans-Bold-74" transform="translate(290.576172 0)"/>
      <use xlink:href="#DejaVuSans-Bold-69" transform="translate(338.378906 0)"/>
      <use xlink:href="#DejaVuSans-Bold-76" transform="translate(372.65625 0)"/>
      <use xlink:href="#DejaVuSans-Bold-65" transform="translate(437.841797 0)"/>
      <use xlink:href="#DejaVuSans-Bold-20" transform="translate(505.664062 0)"/>
      <use xlink:href="#DejaVuSans-Bold-4d" transform="translate(540.478516 0)"/>
      <use xlink:href="#DejaVuSans-Bold-65" transform="translate(639.990234 0)"/>
      <use xlink:href="#DejaVuSans-Bold-61" transform="translate(707.8125 0)"/>
      <use xlink:href="#DejaVuSans-Bold-6e" transform="translate(775.292969 0)"/>
      <use xlink:href="#DejaVuSans-Bold-20" transform="translate(846.484375 0)"/>
      <use xlink:href="#DejaVuSans-Bold-53" transform="translate(881.298828 0)"/>
      <use xlink:href="#DejaVuSans-Bold-71" transform="translate(953.320312 0)"/>
      <use xlink:href="#DejaVuSans-Bold-75" transform="translate(1024.902344 0)"/>
      <use xlink:href="#DejaVuSans-Bold-61" transform="translate(1096.09375 0)"/>
      <use xlink:href="#DejaVuSans-Bold-72" transform="translate(1163.574219 0)"/>
      <use xlink:href="#DejaVuSans-Bold-65" transform="translate(1212.890625 0)"/>
      <use xlink:href="#DejaVuSans-Bold-64" transform="translate(1280.712891 0)"/>
      <use xlink:href="#DejaVuSans-Bold-20" transform="translate(1352.294922 0)"/>
      <use xlink:href="#DejaVuSans-Bold-45" transform="translate(1387.109375 0)"/>
      <use xlink:href="#DejaVuSans-Bold-72" transform="translate(1455.419922 0)"/>
      <use xlink:href="#DejaVuSans-Bold-72" transform="translate(1504.736328 0)"/>
      <use xlink:href="#DejaVuSans-Bold-6f" transform="translate(1554.052734 0)"/>
      <use xlink:href="#DejaVuSans-Bold-72" transform="translate(1622.753906 0)"/>
     </g>
    </g>
   </g>
  </g>
 </g>
 <defs>
  <clipPath id="p128150b13f">
   <rect x="90" y="43.2" width="558" height="345.6"/>
  </clipPath>
 </defs>
</svg>
