<?xml version="1.0" encoding="utf-8" standalone="no"?>
<!DOCTYPE svg PUBLIC "-//W3C//DTD SVG 1.1//EN"
  "http://www.w3.org/Graphics/SVG/1.1/DTD/svg11.dtd">
<svg xmlns:xlink="http://www.w3.org/1999/xlink" width="720pt" height="432pt" viewBox="0 0 720 432" xmlns="http://www.w3.org/2000/svg" version="1.1">
 <metadata>
  <rdf:RDF xmlns:dc="http://purl.org/dc/elements/1.1/" xmlns:cc="http://creativecommons.org/ns#" xmlns:rdf="http://www.w3.org/1999/02/22-rdf-syntax-ns#">
   <cc:Work>
    <dc:type rdf:resource="http://purl.org/dc/dcmitype/StillImage"/>
    <dc:date>2025-01-02T22:36:33.422943</dc:date>
    <dc:format>image/svg+xml</dc:format>
    <dc:creator>
     <cc:Agent>
      <dc:title>Matplotlib v3.8.0, https://matplotlib.org/</dc:title>
     </cc:Agent>
    </dc:creator>
   </cc:Work>
  </rdf:RDF>
 </metadata>
 <defs>
  <style type="text/css">*{stroke-linejoin: round; stroke-linecap: butt}</style>
 </defs>
 <g id="figure_1">
  <g id="patch_1">
   <path d="M 0 432 
L 720 432 
L 720 0 
L 0 0 
z
" style="fill: #ffffff"/>
  </g>
  <g id="axes_1">
   <g id="patch_2">
    <path d="M 90 388.8 
L 648 388.8 
L 648 43.2 
L 90 43.2 
z
" style="fill: #ffffff"/>
   </g>
   <g id="PolyCollection_1">
    <defs>
     <path id="mde169357ed" d="M 641.025 -111.391336 
L 641.025 -63.497492 
L 634.05 -63.587199 
L 627.075 -65.925823 
L 620.1 -65.748765 
L 613.125 -63.12337 
L 606.15 -64.050872 
L 599.175 -65.562514 
L 592.2 -65.519977 
L 585.225 -64.344222 
L 578.25 -64.771264 
L 571.275 -66.345221 
L 564.3 -67.15038 
L 557.325 -65.313482 
L 550.35 -66.488071 
L 543.375 -64.87364 
L 536.4 -63.109293 
L 529.425 -66.165699 
L 522.45 -65.401903 
L 515.475 -65.306347 
L 508.5 -65.240432 
L 501.525 -65.430804 
L 494.55 -65.240582 
L 487.575 -64.357101 
L 480.6 -64.539312 
L 473.625 -65.936717 
L 466.65 -65.433308 
L 459.675 -67.722437 
L 452.7 -68.311716 
L 445.725 -66.222591 
L 438.75 -67.315133 
L 431.775 -64.988092 
L 424.8 -65.433799 
L 417.825 -67.327497 
L 410.85 -64.531551 
L 403.875 -64.81761 
L 396.9 -65.601636 
L 389.925 -68.253461 
L 382.95 -66.68772 
L 375.975 -65.412576 
L 369 -67.350752 
L 362.025 -64.712134 
L 355.05 -66.649654 
L 348.075 -64.981026 
L 341.1 -63.048981 
L 334.125 -62.74047 
L 327.15 -63.584236 
L 320.175 -62.388794 
L 313.2 -62.308087 
L 306.225 -60.814064 
L 299.25 -61.155496 
L 292.275 -60.555701 
L 285.3 -61.150039 
L 278.325 -60.508928 
L 271.35 -61.230569 
L 264.375 -63.538111 
L 257.4 -66.058407 
L 250.425 -65.244982 
L 243.45 -68.015765 
L 236.475 -65.926585 
L 229.5 -67.895007 
L 222.525 -52.60756 
L 215.55 -53.046584 
L 208.575 -77.23182 
L 201.6 -76.701648 
L 194.625 -78.836622 
L 187.65 -83.161264 
L 180.675 -83.330231 
L 173.7 -82.392334 
L 166.725 -81.568084 
L 159.75 -79.250807 
L 152.775 -80.646392 
L 145.8 -82.301247 
L 138.825 -80.997653 
L 131.85 -95.221098 
L 124.875 -98.858573 
L 117.9 -117.33918 
L 110.925 -250.905011 
L 103.95 -258.294733 
L 103.95 -344.730123 
L 103.95 -344.730123 
L 110.925 -340.404149 
L 117.9 -170.801523 
L 124.875 -160.05054 
L 131.85 -155.967875 
L 138.825 -153.000968 
L 145.8 -146.794361 
L 152.775 -150.233451 
L 159.75 -153.590354 
L 166.725 -156.364679 
L 173.7 -158.338883 
L 180.675 -156.691508 
L 187.65 -153.591603 
L 194.625 -148.442052 
L 201.6 -149.058874 
L 208.575 -149.613904 
L 215.55 -98.844994 
L 222.525 -99.486015 
L 229.5 -109.419095 
L 236.475 -111.446328 
L 243.45 -113.022033 
L 250.425 -106.231951 
L 257.4 -109.054564 
L 264.375 -105.526452 
L 271.35 -104.196367 
L 278.325 -103.372005 
L 285.3 -103.989169 
L 292.275 -105.601178 
L 299.25 -107.517393 
L 306.225 -106.850722 
L 313.2 -107.774881 
L 320.175 -107.71511 
L 327.15 -104.969253 
L 334.125 -103.049274 
L 341.1 -106.814551 
L 348.075 -105.347744 
L 355.05 -104.363483 
L 362.025 -105.632829 
L 369 -105.779033 
L 375.975 -104.793085 
L 382.95 -104.389367 
L 389.925 -103.951535 
L 396.9 -102.871482 
L 403.875 -101.384015 
L 410.85 -102.589598 
L 417.825 -104.832835 
L 424.8 -102.612873 
L 431.775 -104.066407 
L 438.75 -106.389927 
L 445.725 -108.081111 
L 452.7 -108.471107 
L 459.675 -109.954376 
L 466.65 -106.865576 
L 473.625 -108.706931 
L 480.6 -108.75971 
L 487.575 -110.401031 
L 494.55 -110.679841 
L 501.525 -113.012373 
L 508.5 -112.074566 
L 515.475 -112.227058 
L 522.45 -110.467734 
L 529.425 -111.753379 
L 536.4 -112.0325 
L 543.375 -112.676495 
L 550.35 -112.152325 
L 557.325 -112.740708 
L 564.3 -111.710776 
L 571.275 -112.573352 
L 578.25 -112.773793 
L 585.225 -115.837391 
L 592.2 -113.890452 
L 599.175 -113.89238 
L 606.15 -113.251633 
L 613.125 -113.353231 
L 620.1 -114.038092 
L 627.075 -111.674813 
L 634.05 -112.321953 
L 641.025 -111.391336 
z
" style="stroke: #000000; stroke-opacity: 0.2"/>
    </defs>
    <g clip-path="url(#p7fa12931e0)">
     <use xlink:href="#mde169357ed" x="0" y="432" style="fill-opacity: 0.2; stroke: #000000; stroke-opacity: 0.2"/>
    </g>
   </g>
   <g id="line2d_1">
    <path d="M 641.025 344.555586 
L 634.05 344.045424 
L 627.075 343.199682 
L 620.1 342.106572 
L 613.125 343.761699 
L 606.15 343.348747 
L 599.175 342.272553 
L 592.2 342.294786 
L 585.225 341.909194 
L 578.25 343.227472 
L 571.275 342.540714 
L 564.3 342.569422 
L 557.325 342.972905 
L 550.35 342.679802 
L 543.375 343.224932 
L 536.4 344.429103 
L 529.425 343.040461 
L 522.45 344.065181 
L 515.475 343.233298 
L 508.5 343.342501 
L 501.525 342.778411 
L 494.55 344.039788 
L 487.575 344.620934 
L 480.6 345.350489 
L 473.625 344.678176 
L 466.65 345.850558 
L 459.675 343.161593 
L 452.7 343.608589 
L 445.725 344.848149 
L 438.75 345.14747 
L 431.775 347.47275 
L 424.8 347.976664 
L 417.825 345.919834 
L 410.85 348.439426 
L 403.875 348.899188 
L 396.9 347.763441 
L 389.925 345.897502 
L 382.95 346.461457 
L 375.975 346.89717 
L 369 345.435108 
L 362.025 346.827519 
L 355.05 346.493432 
L 348.075 346.835615 
L 341.1 347.068234 
L 334.125 349.105128 
L 327.15 347.723255 
L 320.175 346.948048 
L 313.2 346.958516 
L 306.225 348.167607 
L 299.25 347.663555 
L 292.275 348.921561 
L 285.3 349.430396 
L 278.325 350.059534 
L 271.35 349.286532 
L 264.375 347.467718 
L 257.4 344.443515 
L 250.425 346.261534 
L 243.45 341.481101 
L 236.475 343.313544 
L 229.5 343.342949 
L 222.525 355.953212 
L 215.55 356.054211 
L 208.575 318.577138 
L 201.6 319.119739 
L 194.625 318.360663 
L 187.65 313.623567 
L 180.675 311.989131 
L 173.7 311.634391 
L 166.725 313.033619 
L 159.75 315.57942 
L 152.775 316.560078 
L 145.8 317.452196 
L 138.825 315.000689 
L 131.85 306.405514 
L 124.875 302.545443 
L 117.9 287.929649 
L 110.925 136.34542 
L 103.95 130.487572 
" clip-path="url(#p7fa12931e0)" style="fill: none; stroke: #000000; stroke-linecap: square"/>
    <defs>
     <path id="m5e6ce3aea1" d="M 0 2 
C 0.530406 2 1.03916 1.789267 1.414214 1.414214 
C 1.789267 1.03916 2 0.530406 2 0 
C 2 -0.530406 1.789267 -1.03916 1.414214 -1.414214 
C 1.03916 -1.789267 0.530406 -2 0 -2 
C -0.530406 -2 -1.03916 -1.789267 -1.414214 -1.414214 
C -1.789267 -1.03916 -2 -0.530406 -2 0 
C -2 0.530406 -1.789267 1.03916 -1.414214 1.414214 
C -1.03916 1.789267 -0.530406 2 0 2 
z
" style="stroke: #111111; stroke-width: 0.5"/>
    </defs>
    <g clip-path="url(#p7fa12931e0)">
     <use xlink:href="#m5e6ce3aea1" x="641.025" y="344.555586" style="stroke: #111111; stroke-width: 0.5"/>
     <use xlink:href="#m5e6ce3aea1" x="634.05" y="344.045424" style="stroke: #111111; stroke-width: 0.5"/>
     <use xlink:href="#m5e6ce3aea1" x="627.075" y="343.199682" style="stroke: #111111; stroke-width: 0.5"/>
     <use xlink:href="#m5e6ce3aea1" x="620.1" y="342.106572" style="stroke: #111111; stroke-width: 0.5"/>
     <use xlink:href="#m5e6ce3aea1" x="613.125" y="343.761699" style="stroke: #111111; stroke-width: 0.5"/>
     <use xlink:href="#m5e6ce3aea1" x="606.15" y="343.348747" style="stroke: #111111; stroke-width: 0.5"/>
     <use xlink:href="#m5e6ce3aea1" x="599.175" y="342.272553" style="stroke: #111111; stroke-width: 0.5"/>
     <use xlink:href="#m5e6ce3aea1" x="592.2" y="342.294786" style="stroke: #111111; stroke-width: 0.5"/>
     <use xlink:href="#m5e6ce3aea1" x="585.225" y="341.909194" style="stroke: #111111; stroke-width: 0.5"/>
     <use xlink:href="#m5e6ce3aea1" x="578.25" y="343.227472" style="stroke: #111111; stroke-width: 0.5"/>
     <use xlink:href="#m5e6ce3aea1" x="571.275" y="342.540714" style="stroke: #111111; stroke-width: 0.5"/>
     <use xlink:href="#m5e6ce3aea1" x="564.3" y="342.569422" style="stroke: #111111; stroke-width: 0.5"/>
     <use xlink:href="#m5e6ce3aea1" x="557.325" y="342.972905" style="stroke: #111111; stroke-width: 0.5"/>
     <use xlink:href="#m5e6ce3aea1" x="550.35" y="342.679802" style="stroke: #111111; stroke-width: 0.5"/>
     <use xlink:href="#m5e6ce3aea1" x="543.375" y="343.224932" style="stroke: #111111; stroke-width: 0.5"/>
     <use xlink:href="#m5e6ce3aea1" x="536.4" y="344.429103" style="stroke: #111111; stroke-width: 0.5"/>
     <use xlink:href="#m5e6ce3aea1" x="529.425" y="343.040461" style="stroke: #111111; stroke-width: 0.5"/>
     <use xlink:href="#m5e6ce3aea1" x="522.45" y="344.065181" style="stroke: #111111; stroke-width: 0.5"/>
     <use xlink:href="#m5e6ce3aea1" x="515.475" y="343.233298" style="stroke: #111111; stroke-width: 0.5"/>
     <use xlink:href="#m5e6ce3aea1" x="508.5" y="343.342501" style="stroke: #111111; stroke-width: 0.5"/>
     <use xlink:href="#m5e6ce3aea1" x="501.525" y="342.778411" style="stroke: #111111; stroke-width: 0.5"/>
     <use xlink:href="#m5e6ce3aea1" x="494.55" y="344.039788" style="stroke: #111111; stroke-width: 0.5"/>
     <use xlink:href="#m5e6ce3aea1" x="487.575" y="344.620934" style="stroke: #111111; stroke-width: 0.5"/>
     <use xlink:href="#m5e6ce3aea1" x="480.6" y="345.350489" style="stroke: #111111; stroke-width: 0.5"/>
     <use xlink:href="#m5e6ce3aea1" x="473.625" y="344.678176" style="stroke: #111111; stroke-width: 0.5"/>
     <use xlink:href="#m5e6ce3aea1" x="466.65" y="345.850558" style="stroke: #111111; stroke-width: 0.5"/>
     <use xlink:href="#m5e6ce3aea1" x="459.675" y="343.161593" style="stroke: #111111; stroke-width: 0.5"/>
     <use xlink:href="#m5e6ce3aea1" x="452.7" y="343.608589" style="stroke: #111111; stroke-width: 0.5"/>
     <use xlink:href="#m5e6ce3aea1" x="445.725" y="344.848149" style="stroke: #111111; stroke-width: 0.5"/>
     <use xlink:href="#m5e6ce3aea1" x="438.75" y="345.14747" style="stroke: #111111; stroke-width: 0.5"/>
     <use xlink:href="#m5e6ce3aea1" x="431.775" y="347.47275" style="stroke: #111111; stroke-width: 0.5"/>
     <use xlink:href="#m5e6ce3aea1" x="424.8" y="347.976664" style="stroke: #111111; stroke-width: 0.5"/>
     <use xlink:href="#m5e6ce3aea1" x="417.825" y="345.919834" style="stroke: #111111; stroke-width: 0.5"/>
     <use xlink:href="#m5e6ce3aea1" x="410.85" y="348.439426" style="stroke: #111111; stroke-width: 0.5"/>
     <use xlink:href="#m5e6ce3aea1" x="403.875" y="348.899188" style="stroke: #111111; stroke-width: 0.5"/>
     <use xlink:href="#m5e6ce3aea1" x="396.9" y="347.763441" style="stroke: #111111; stroke-width: 0.5"/>
     <use xlink:href="#m5e6ce3aea1" x="389.925" y="345.897502" style="stroke: #111111; stroke-width: 0.5"/>
     <use xlink:href="#m5e6ce3aea1" x="382.95" y="346.461457" style="stroke: #111111; stroke-width: 0.5"/>
     <use xlink:href="#m5e6ce3aea1" x="375.975" y="346.89717" style="stroke: #111111; stroke-width: 0.5"/>
     <use xlink:href="#m5e6ce3aea1" x="369" y="345.435108" style="stroke: #111111; stroke-width: 0.5"/>
     <use xlink:href="#m5e6ce3aea1" x="362.025" y="346.827519" style="stroke: #111111; stroke-width: 0.5"/>
     <use xlink:href="#m5e6ce3aea1" x="355.05" y="346.493432" style="stroke: #111111; stroke-width: 0.5"/>
     <use xlink:href="#m5e6ce3aea1" x="348.075" y="346.835615" style="stroke: #111111; stroke-width: 0.5"/>
     <use xlink:href="#m5e6ce3aea1" x="341.1" y="347.068234" style="stroke: #111111; stroke-width: 0.5"/>
     <use xlink:href="#m5e6ce3aea1" x="334.125" y="349.105128" style="stroke: #111111; stroke-width: 0.5"/>
     <use xlink:href="#m5e6ce3aea1" x="327.15" y="347.723255" style="stroke: #111111; stroke-width: 0.5"/>
     <use xlink:href="#m5e6ce3aea1" x="320.175" y="346.948048" style="stroke: #111111; stroke-width: 0.5"/>
     <use xlink:href="#m5e6ce3aea1" x="313.2" y="346.958516" style="stroke: #111111; stroke-width: 0.5"/>
     <use xlink:href="#m5e6ce3aea1" x="306.225" y="348.167607" style="stroke: #111111; stroke-width: 0.5"/>
     <use xlink:href="#m5e6ce3aea1" x="299.25" y="347.663555" style="stroke: #111111; stroke-width: 0.5"/>
     <use xlink:href="#m5e6ce3aea1" x="292.275" y="348.921561" style="stroke: #111111; stroke-width: 0.5"/>
     <use xlink:href="#m5e6ce3aea1" x="285.3" y="349.430396" style="stroke: #111111; stroke-width: 0.5"/>
     <use xlink:href="#m5e6ce3aea1" x="278.325" y="350.059534" style="stroke: #111111; stroke-width: 0.5"/>
     <use xlink:href="#m5e6ce3aea1" x="271.35" y="349.286532" style="stroke: #111111; stroke-width: 0.5"/>
     <use xlink:href="#m5e6ce3aea1" x="264.375" y="347.467718" style="stroke: #111111; stroke-width: 0.5"/>
     <use xlink:href="#m5e6ce3aea1" x="257.4" y="344.443515" style="stroke: #111111; stroke-width: 0.5"/>
     <use xlink:href="#m5e6ce3aea1" x="250.425" y="346.261534" style="stroke: #111111; stroke-width: 0.5"/>
     <use xlink:href="#m5e6ce3aea1" x="243.45" y="341.481101" style="stroke: #111111; stroke-width: 0.5"/>
     <use xlink:href="#m5e6ce3aea1" x="236.475" y="343.313544" style="stroke: #111111; stroke-width: 0.5"/>
     <use xlink:href="#m5e6ce3aea1" x="229.5" y="343.342949" style="stroke: #111111; stroke-width: 0.5"/>
     <use xlink:href="#m5e6ce3aea1" x="222.525" y="355.953212" style="stroke: #111111; stroke-width: 0.5"/>
     <use xlink:href="#m5e6ce3aea1" x="215.55" y="356.054211" style="stroke: #111111; stroke-width: 0.5"/>
     <use xlink:href="#m5e6ce3aea1" x="208.575" y="318.577138" style="stroke: #111111; stroke-width: 0.5"/>
     <use xlink:href="#m5e6ce3aea1" x="201.6" y="319.119739" style="stroke: #111111; stroke-width: 0.5"/>
     <use xlink:href="#m5e6ce3aea1" x="194.625" y="318.360663" style="stroke: #111111; stroke-width: 0.5"/>
     <use xlink:href="#m5e6ce3aea1" x="187.65" y="313.623567" style="stroke: #111111; stroke-width: 0.5"/>
     <use xlink:href="#m5e6ce3aea1" x="180.675" y="311.989131" style="stroke: #111111; stroke-width: 0.5"/>
     <use xlink:href="#m5e6ce3aea1" x="173.7" y="311.634391" style="stroke: #111111; stroke-width: 0.5"/>
     <use xlink:href="#m5e6ce3aea1" x="166.725" y="313.033619" style="stroke: #111111; stroke-width: 0.5"/>
     <use xlink:href="#m5e6ce3aea1" x="159.75" y="315.57942" style="stroke: #111111; stroke-width: 0.5"/>
     <use xlink:href="#m5e6ce3aea1" x="152.775" y="316.560078" style="stroke: #111111; stroke-width: 0.5"/>
     <use xlink:href="#m5e6ce3aea1" x="145.8" y="317.452196" style="stroke: #111111; stroke-width: 0.5"/>
     <use xlink:href="#m5e6ce3aea1" x="138.825" y="315.000689" style="stroke: #111111; stroke-width: 0.5"/>
     <use xlink:href="#m5e6ce3aea1" x="131.85" y="306.405514" style="stroke: #111111; stroke-width: 0.5"/>
     <use xlink:href="#m5e6ce3aea1" x="124.875" y="302.545443" style="stroke: #111111; stroke-width: 0.5"/>
     <use xlink:href="#m5e6ce3aea1" x="117.9" y="287.929649" style="stroke: #111111; stroke-width: 0.5"/>
     <use xlink:href="#m5e6ce3aea1" x="110.925" y="136.34542" style="stroke: #111111; stroke-width: 0.5"/>
     <use xlink:href="#m5e6ce3aea1" x="103.95" y="130.487572" style="stroke: #111111; stroke-width: 0.5"/>
    </g>
   </g>
   <g id="patch_3">
    <path d="M 90 388.8 
L 90 43.2 
" style="fill: none; stroke: #111111; stroke-linejoin: miter; stroke-linecap: square"/>
   </g>
   <g id="patch_4">
    <path d="M 648 388.8 
L 648 43.2 
" style="fill: none; stroke: #111111; stroke-linejoin: miter; stroke-linecap: square"/>
   </g>
   <g id="patch_5">
    <path d="M 90 388.8 
L 648 388.8 
" style="fill: none; stroke: #111111; stroke-linejoin: miter; stroke-linecap: square"/>
   </g>
   <g id="patch_6">
    <path d="M 90 43.2 
L 648 43.2 
" style="fill: none; stroke: #111111; stroke-linejoin: miter; stroke-linecap: square"/>
   </g>
   <g id="matplotlib.axis_1">
    <g id="xtick_1">
     <g id="line2d_2">
      <defs>
       <path id="me9d3fbdbb8" d="M 0 0 
L 0 6 
" style="stroke: #000000; stroke-width: 2"/>
      </defs>
      <g>
       <use xlink:href="#me9d3fbdbb8" x="90" y="388.8" style="stroke: #000000; stroke-width: 2"/>
      </g>
     </g>
     <g id="text_1">
      <!-- 0 -->
      <g transform="translate(85.419 409.74175) scale(0.144 -0.144)">
       <defs>
        <path id="DejaVuSans-30" d="M 2034 4250 
Q 1547 4250 1301 3770 
Q 1056 3291 1056 2328 
Q 1056 1369 1301 889 
Q 1547 409 2034 409 
Q 2525 409 2770 889 
Q 3016 1369 3016 2328 
Q 3016 3291 2770 3770 
Q 2525 4250 2034 4250 
z
M 2034 4750 
Q 2819 4750 3233 4129 
Q 3647 3509 3647 2328 
Q 3647 1150 3233 529 
Q 2819 -91 2034 -91 
Q 1250 -91 836 529 
Q 422 1150 422 2328 
Q 422 3509 836 4129 
Q 1250 4750 2034 4750 
z
" transform="scale(0.015625)"/>
       </defs>
       <use xlink:href="#DejaVuSans-30"/>
      </g>
     </g>
    </g>
    <g id="xtick_2">
     <g id="line2d_3">
      <g>
       <use xlink:href="#me9d3fbdbb8" x="159.75" y="388.8" style="stroke: #000000; stroke-width: 2"/>
      </g>
     </g>
     <g id="text_2">
      <!-- 10 -->
      <g transform="translate(150.588 409.74175) scale(0.144 -0.144)">
       <defs>
        <path id="DejaVuSans-31" d="M 794 531 
L 1825 531 
L 1825 4091 
L 703 3866 
L 703 4441 
L 1819 4666 
L 2450 4666 
L 2450 531 
L 3481 531 
L 3481 0 
L 794 0 
L 794 531 
z
" transform="scale(0.015625)"/>
       </defs>
       <use xlink:href="#DejaVuSans-31"/>
       <use xlink:href="#DejaVuSans-30" x="63.623047"/>
      </g>
     </g>
    </g>
    <g id="xtick_3">
     <g id="line2d_4">
      <g>
       <use xlink:href="#me9d3fbdbb8" x="229.5" y="388.8" style="stroke: #000000; stroke-width: 2"/>
      </g>
     </g>
     <g id="text_3">
      <!-- 20 -->
      <g transform="translate(220.338 409.74175) scale(0.144 -0.144)">
       <defs>
        <path id="DejaVuSans-32" d="M 1228 531 
L 3431 531 
L 3431 0 
L 469 0 
L 469 531 
Q 828 903 1448 1529 
Q 2069 2156 2228 2338 
Q 2531 2678 2651 2914 
Q 2772 3150 2772 3378 
Q 2772 3750 2511 3984 
Q 2250 4219 1831 4219 
Q 1534 4219 1204 4116 
Q 875 4013 500 3803 
L 500 4441 
Q 881 4594 1212 4672 
Q 1544 4750 1819 4750 
Q 2544 4750 2975 4387 
Q 3406 4025 3406 3419 
Q 3406 3131 3298 2873 
Q 3191 2616 2906 2266 
Q 2828 2175 2409 1742 
Q 1991 1309 1228 531 
z
" transform="scale(0.015625)"/>
       </defs>
       <use xlink:href="#DejaVuSans-32"/>
       <use xlink:href="#DejaVuSans-30" x="63.623047"/>
      </g>
     </g>
    </g>
    <g id="xtick_4">
     <g id="line2d_5">
      <g>
       <use xlink:href="#me9d3fbdbb8" x="299.25" y="388.8" style="stroke: #000000; stroke-width: 2"/>
      </g>
     </g>
     <g id="text_4">
      <!-- 30 -->
      <g transform="translate(290.088 409.74175) scale(0.144 -0.144)">
       <defs>
        <path id="DejaVuSans-33" d="M 2597 2516 
Q 3050 2419 3304 2112 
Q 3559 1806 3559 1356 
Q 3559 666 3084 287 
Q 2609 -91 1734 -91 
Q 1441 -91 1130 -33 
Q 819 25 488 141 
L 488 750 
Q 750 597 1062 519 
Q 1375 441 1716 441 
Q 2309 441 2620 675 
Q 2931 909 2931 1356 
Q 2931 1769 2642 2001 
Q 2353 2234 1838 2234 
L 1294 2234 
L 1294 2753 
L 1863 2753 
Q 2328 2753 2575 2939 
Q 2822 3125 2822 3475 
Q 2822 3834 2567 4026 
Q 2313 4219 1838 4219 
Q 1578 4219 1281 4162 
Q 984 4106 628 3988 
L 628 4550 
Q 988 4650 1302 4700 
Q 1616 4750 1894 4750 
Q 2613 4750 3031 4423 
Q 3450 4097 3450 3541 
Q 3450 3153 3228 2886 
Q 3006 2619 2597 2516 
z
" transform="scale(0.015625)"/>
       </defs>
       <use xlink:href="#DejaVuSans-33"/>
       <use xlink:href="#DejaVuSans-30" x="63.623047"/>
      </g>
     </g>
    </g>
    <g id="xtick_5">
     <g id="line2d_6">
      <g>
       <use xlink:href="#me9d3fbdbb8" x="369" y="388.8" style="stroke: #000000; stroke-width: 2"/>
      </g>
     </g>
     <g id="text_5">
      <!-- 40 -->
      <g transform="translate(359.838 409.74175) scale(0.144 -0.144)">
       <defs>
        <path id="DejaVuSans-34" d="M 2419 4116 
L 825 1625 
L 2419 1625 
L 2419 4116 
z
M 2253 4666 
L 3047 4666 
L 3047 1625 
L 3713 1625 
L 3713 1100 
L 3047 1100 
L 3047 0 
L 2419 0 
L 2419 1100 
L 313 1100 
L 313 1709 
L 2253 4666 
z
" transform="scale(0.015625)"/>
       </defs>
       <use xlink:href="#DejaVuSans-34"/>
       <use xlink:href="#DejaVuSans-30" x="63.623047"/>
      </g>
     </g>
    </g>
    <g id="xtick_6">
     <g id="line2d_7">
      <g>
       <use xlink:href="#me9d3fbdbb8" x="438.75" y="388.8" style="stroke: #000000; stroke-width: 2"/>
      </g>
     </g>
     <g id="text_6">
      <!-- 50 -->
      <g transform="translate(429.588 409.74175) scale(0.144 -0.144)">
       <defs>
        <path id="DejaVuSans-35" d="M 691 4666 
L 3169 4666 
L 3169 4134 
L 1269 4134 
L 1269 2991 
Q 1406 3038 1543 3061 
Q 1681 3084 1819 3084 
Q 2600 3084 3056 2656 
Q 3513 2228 3513 1497 
Q 3513 744 3044 326 
Q 2575 -91 1722 -91 
Q 1428 -91 1123 -41 
Q 819 9 494 109 
L 494 744 
Q 775 591 1075 516 
Q 1375 441 1709 441 
Q 2250 441 2565 725 
Q 2881 1009 2881 1497 
Q 2881 1984 2565 2268 
Q 2250 2553 1709 2553 
Q 1456 2553 1204 2497 
Q 953 2441 691 2322 
L 691 4666 
z
" transform="scale(0.015625)"/>
       </defs>
       <use xlink:href="#DejaVuSans-35"/>
       <use xlink:href="#DejaVuSans-30" x="63.623047"/>
      </g>
     </g>
    </g>
    <g id="xtick_7">
     <g id="line2d_8">
      <g>
       <use xlink:href="#me9d3fbdbb8" x="508.5" y="388.8" style="stroke: #000000; stroke-width: 2"/>
      </g>
     </g>
     <g id="text_7">
      <!-- 60 -->
      <g transform="translate(499.338 409.74175) scale(0.144 -0.144)">
       <defs>
        <path id="DejaVuSans-36" d="M 2113 2584 
Q 1688 2584 1439 2293 
Q 1191 2003 1191 1497 
Q 1191 994 1439 701 
Q 1688 409 2113 409 
Q 2538 409 2786 701 
Q 3034 994 3034 1497 
Q 3034 2003 2786 2293 
Q 2538 2584 2113 2584 
z
M 3366 4563 
L 3366 3988 
Q 3128 4100 2886 4159 
Q 2644 4219 2406 4219 
Q 1781 4219 1451 3797 
Q 1122 3375 1075 2522 
Q 1259 2794 1537 2939 
Q 1816 3084 2150 3084 
Q 2853 3084 3261 2657 
Q 3669 2231 3669 1497 
Q 3669 778 3244 343 
Q 2819 -91 2113 -91 
Q 1303 -91 875 529 
Q 447 1150 447 2328 
Q 447 3434 972 4092 
Q 1497 4750 2381 4750 
Q 2619 4750 2861 4703 
Q 3103 4656 3366 4563 
z
" transform="scale(0.015625)"/>
       </defs>
       <use xlink:href="#DejaVuSans-36"/>
       <use xlink:href="#DejaVuSans-30" x="63.623047"/>
      </g>
     </g>
    </g>
    <g id="xtick_8">
     <g id="line2d_9">
      <g>
       <use xlink:href="#me9d3fbdbb8" x="578.25" y="388.8" style="stroke: #000000; stroke-width: 2"/>
      </g>
     </g>
     <g id="text_8">
      <!-- 70 -->
      <g transform="translate(569.088 409.74175) scale(0.144 -0.144)">
       <defs>
        <path id="DejaVuSans-37" d="M 525 4666 
L 3525 4666 
L 3525 4397 
L 1831 0 
L 1172 0 
L 2766 4134 
L 525 4134 
L 525 4666 
z
" transform="scale(0.015625)"/>
       </defs>
       <use xlink:href="#DejaVuSans-37"/>
       <use xlink:href="#DejaVuSans-30" x="63.623047"/>
      </g>
     </g>
    </g>
    <g id="xtick_9">
     <g id="line2d_10">
      <g>
       <use xlink:href="#me9d3fbdbb8" x="648" y="388.8" style="stroke: #000000; stroke-width: 2"/>
      </g>
     </g>
     <g id="text_9">
      <!-- 80 -->
      <g transform="translate(638.838 409.74175) scale(0.144 -0.144)">
       <defs>
        <path id="DejaVuSans-38" d="M 2034 2216 
Q 1584 2216 1326 1975 
Q 1069 1734 1069 1313 
Q 1069 891 1326 650 
Q 1584 409 2034 409 
Q 2484 409 2743 651 
Q 3003 894 3003 1313 
Q 3003 1734 2745 1975 
Q 2488 2216 2034 2216 
z
M 1403 2484 
Q 997 2584 770 2862 
Q 544 3141 544 3541 
Q 544 4100 942 4425 
Q 1341 4750 2034 4750 
Q 2731 4750 3128 4425 
Q 3525 4100 3525 3541 
Q 3525 3141 3298 2862 
Q 3072 2584 2669 2484 
Q 3125 2378 3379 2068 
Q 3634 1759 3634 1313 
Q 3634 634 3220 271 
Q 2806 -91 2034 -91 
Q 1263 -91 848 271 
Q 434 634 434 1313 
Q 434 1759 690 2068 
Q 947 2378 1403 2484 
z
M 1172 3481 
Q 1172 3119 1398 2916 
Q 1625 2713 2034 2713 
Q 2441 2713 2670 2916 
Q 2900 3119 2900 3481 
Q 2900 3844 2670 4047 
Q 2441 4250 2034 4250 
Q 1625 4250 1398 4047 
Q 1172 3844 1172 3481 
z
" transform="scale(0.015625)"/>
       </defs>
       <use xlink:href="#DejaVuSans-38"/>
       <use xlink:href="#DejaVuSans-30" x="63.623047"/>
      </g>
     </g>
    </g>
    <g id="text_10">
     <!-- Number of Features -->
     <g transform="translate(301.506562 426.854625) scale(0.12 -0.12)">
      <defs>
       <path id="DejaVuSans-Bold-4e" d="M 588 4666 
L 1931 4666 
L 3628 1466 
L 3628 4666 
L 4769 4666 
L 4769 0 
L 3425 0 
L 1728 3200 
L 1728 0 
L 588 0 
L 588 4666 
z
" transform="scale(0.015625)"/>
       <path id="DejaVuSans-Bold-75" d="M 500 1363 
L 500 3500 
L 1625 3500 
L 1625 3150 
Q 1625 2866 1622 2436 
Q 1619 2006 1619 1863 
Q 1619 1441 1641 1255 
Q 1663 1069 1716 984 
Q 1784 875 1895 815 
Q 2006 756 2150 756 
Q 2500 756 2700 1025 
Q 2900 1294 2900 1772 
L 2900 3500 
L 4019 3500 
L 4019 0 
L 2900 0 
L 2900 506 
Q 2647 200 2364 54 
Q 2081 -91 1741 -91 
Q 1134 -91 817 281 
Q 500 653 500 1363 
z
" transform="scale(0.015625)"/>
       <path id="DejaVuSans-Bold-6d" d="M 3781 2919 
Q 3994 3244 4286 3414 
Q 4578 3584 4928 3584 
Q 5531 3584 5847 3212 
Q 6163 2841 6163 2131 
L 6163 0 
L 5038 0 
L 5038 1825 
Q 5041 1866 5042 1909 
Q 5044 1953 5044 2034 
Q 5044 2406 4934 2573 
Q 4825 2741 4581 2741 
Q 4263 2741 4089 2478 
Q 3916 2216 3909 1719 
L 3909 0 
L 2784 0 
L 2784 1825 
Q 2784 2406 2684 2573 
Q 2584 2741 2328 2741 
Q 2006 2741 1831 2477 
Q 1656 2213 1656 1722 
L 1656 0 
L 531 0 
L 531 3500 
L 1656 3500 
L 1656 2988 
Q 1863 3284 2130 3434 
Q 2397 3584 2719 3584 
Q 3081 3584 3359 3409 
Q 3638 3234 3781 2919 
z
" transform="scale(0.015625)"/>
       <path id="DejaVuSans-Bold-62" d="M 2400 722 
Q 2759 722 2948 984 
Q 3138 1247 3138 1747 
Q 3138 2247 2948 2509 
Q 2759 2772 2400 2772 
Q 2041 2772 1848 2508 
Q 1656 2244 1656 1747 
Q 1656 1250 1848 986 
Q 2041 722 2400 722 
z
M 1656 2988 
Q 1888 3294 2169 3439 
Q 2450 3584 2816 3584 
Q 3463 3584 3878 3070 
Q 4294 2556 4294 1747 
Q 4294 938 3878 423 
Q 3463 -91 2816 -91 
Q 2450 -91 2169 54 
Q 1888 200 1656 506 
L 1656 0 
L 538 0 
L 538 4863 
L 1656 4863 
L 1656 2988 
z
" transform="scale(0.015625)"/>
       <path id="DejaVuSans-Bold-65" d="M 4031 1759 
L 4031 1441 
L 1416 1441 
Q 1456 1047 1700 850 
Q 1944 653 2381 653 
Q 2734 653 3104 758 
Q 3475 863 3866 1075 
L 3866 213 
Q 3469 63 3072 -14 
Q 2675 -91 2278 -91 
Q 1328 -91 801 392 
Q 275 875 275 1747 
Q 275 2603 792 3093 
Q 1309 3584 2216 3584 
Q 3041 3584 3536 3087 
Q 4031 2591 4031 1759 
z
M 2881 2131 
Q 2881 2450 2695 2645 
Q 2509 2841 2209 2841 
Q 1884 2841 1681 2658 
Q 1478 2475 1428 2131 
L 2881 2131 
z
" transform="scale(0.015625)"/>
       <path id="DejaVuSans-Bold-72" d="M 3138 2547 
Q 2991 2616 2845 2648 
Q 2700 2681 2553 2681 
Q 2122 2681 1889 2404 
Q 1656 2128 1656 1613 
L 1656 0 
L 538 0 
L 538 3500 
L 1656 3500 
L 1656 2925 
Q 1872 3269 2151 3426 
Q 2431 3584 2822 3584 
Q 2878 3584 2943 3579 
Q 3009 3575 3134 3559 
L 3138 2547 
z
" transform="scale(0.015625)"/>
       <path id="DejaVuSans-Bold-20" transform="scale(0.015625)"/>
       <path id="DejaVuSans-Bold-6f" d="M 2203 2784 
Q 1831 2784 1636 2517 
Q 1441 2250 1441 1747 
Q 1441 1244 1636 976 
Q 1831 709 2203 709 
Q 2569 709 2762 976 
Q 2956 1244 2956 1747 
Q 2956 2250 2762 2517 
Q 2569 2784 2203 2784 
z
M 2203 3584 
Q 3106 3584 3614 3096 
Q 4122 2609 4122 1747 
Q 4122 884 3614 396 
Q 3106 -91 2203 -91 
Q 1297 -91 786 396 
Q 275 884 275 1747 
Q 275 2609 786 3096 
Q 1297 3584 2203 3584 
z
" transform="scale(0.015625)"/>
       <path id="DejaVuSans-Bold-66" d="M 2841 4863 
L 2841 4128 
L 2222 4128 
Q 1984 4128 1890 4042 
Q 1797 3956 1797 3744 
L 1797 3500 
L 2753 3500 
L 2753 2700 
L 1797 2700 
L 1797 0 
L 678 0 
L 678 2700 
L 122 2700 
L 122 3500 
L 678 3500 
L 678 3744 
Q 678 4316 997 4589 
Q 1316 4863 1984 4863 
L 2841 4863 
z
" transform="scale(0.015625)"/>
       <path id="DejaVuSans-Bold-46" d="M 588 4666 
L 3834 4666 
L 3834 3756 
L 1791 3756 
L 1791 2888 
L 3713 2888 
L 3713 1978 
L 1791 1978 
L 1791 0 
L 588 0 
L 588 4666 
z
" transform="scale(0.015625)"/>
       <path id="DejaVuSans-Bold-61" d="M 2106 1575 
Q 1756 1575 1579 1456 
Q 1403 1338 1403 1106 
Q 1403 894 1545 773 
Q 1688 653 1941 653 
Q 2256 653 2472 879 
Q 2688 1106 2688 1447 
L 2688 1575 
L 2106 1575 
z
M 3816 1997 
L 3816 0 
L 2688 0 
L 2688 519 
Q 2463 200 2181 54 
Q 1900 -91 1497 -91 
Q 953 -91 614 226 
Q 275 544 275 1050 
Q 275 1666 698 1953 
Q 1122 2241 2028 2241 
L 2688 2241 
L 2688 2328 
Q 2688 2594 2478 2717 
Q 2269 2841 1825 2841 
Q 1466 2841 1156 2769 
Q 847 2697 581 2553 
L 581 3406 
Q 941 3494 1303 3539 
Q 1666 3584 2028 3584 
Q 2975 3584 3395 3211 
Q 3816 2838 3816 1997 
z
" transform="scale(0.015625)"/>
       <path id="DejaVuSans-Bold-74" d="M 1759 4494 
L 1759 3500 
L 2913 3500 
L 2913 2700 
L 1759 2700 
L 1759 1216 
Q 1759 972 1856 886 
Q 1953 800 2241 800 
L 2816 800 
L 2816 0 
L 1856 0 
Q 1194 0 917 276 
Q 641 553 641 1216 
L 641 2700 
L 84 2700 
L 84 3500 
L 641 3500 
L 641 4494 
L 1759 4494 
z
" transform="scale(0.015625)"/>
       <path id="DejaVuSans-Bold-73" d="M 3272 3391 
L 3272 2541 
Q 2913 2691 2578 2766 
Q 2244 2841 1947 2841 
Q 1628 2841 1473 2761 
Q 1319 2681 1319 2516 
Q 1319 2381 1436 2309 
Q 1553 2238 1856 2203 
L 2053 2175 
Q 2913 2066 3209 1816 
Q 3506 1566 3506 1031 
Q 3506 472 3093 190 
Q 2681 -91 1863 -91 
Q 1516 -91 1145 -36 
Q 775 19 384 128 
L 384 978 
Q 719 816 1070 734 
Q 1422 653 1784 653 
Q 2113 653 2278 743 
Q 2444 834 2444 1013 
Q 2444 1163 2330 1236 
Q 2216 1309 1875 1350 
L 1678 1375 
Q 931 1469 631 1722 
Q 331 1975 331 2491 
Q 331 3047 712 3315 
Q 1094 3584 1881 3584 
Q 2191 3584 2531 3537 
Q 2872 3491 3272 3391 
z
" transform="scale(0.015625)"/>
      </defs>
      <use xlink:href="#DejaVuSans-Bold-4e"/>
      <use xlink:href="#DejaVuSans-Bold-75" x="83.691406"/>
      <use xlink:href="#DejaVuSans-Bold-6d" x="154.882812"/>
      <use xlink:href="#DejaVuSans-Bold-62" x="259.082031"/>
      <use xlink:href="#DejaVuSans-Bold-65" x="330.664062"/>
      <use xlink:href="#DejaVuSans-Bold-72" x="398.486328"/>
      <use xlink:href="#DejaVuSans-Bold-20" x="447.802734"/>
      <use xlink:href="#DejaVuSans-Bold-6f" x="482.617188"/>
      <use xlink:href="#DejaVuSans-Bold-66" x="551.318359"/>
      <use xlink:href="#DejaVuSans-Bold-20" x="594.824219"/>
      <use xlink:href="#DejaVuSans-Bold-46" x="629.638672"/>
      <use xlink:href="#DejaVuSans-Bold-65" x="693.949219"/>
      <use xlink:href="#DejaVuSans-Bold-61" x="761.771484"/>
      <use xlink:href="#DejaVuSans-Bold-74" x="829.251953"/>
      <use xlink:href="#DejaVuSans-Bold-75" x="877.054688"/>
      <use xlink:href="#DejaVuSans-Bold-72" x="948.246094"/>
      <use xlink:href="#DejaVuSans-Bold-65" x="997.5625"/>
      <use xlink:href="#DejaVuSans-Bold-73" x="1065.384766"/>
     </g>
    </g>
   </g>
   <g id="matplotlib.axis_2">
    <g id="ytick_1">
     <g id="line2d_11">
      <defs>
       <path id="m3fb77a0b2d" d="M 0 0 
L -6 0 
" style="stroke: #000000; stroke-width: 2"/>
      </defs>
      <g>
       <use xlink:href="#m3fb77a0b2d" x="90" y="388.8" style="stroke: #000000; stroke-width: 2"/>
      </g>
     </g>
     <g id="text_11">
      <!-- 2.0 -->
      <g transform="translate(57.0995 392.7735) scale(0.144 -0.144)">
       <defs>
        <path id="DejaVuSans-2e" d="M 684 794 
L 1344 794 
L 1344 0 
L 684 0 
L 684 794 
z
" transform="scale(0.015625)"/>
       </defs>
       <use xlink:href="#DejaVuSans-32"/>
       <use xlink:href="#DejaVuSans-2e" x="63.623047"/>
       <use xlink:href="#DejaVuSans-30" x="95.410156"/>
      </g>
     </g>
    </g>
    <g id="ytick_2">
     <g id="line2d_12">
      <g>
       <use xlink:href="#m3fb77a0b2d" x="90" y="319.68" style="stroke: #000000; stroke-width: 2"/>
      </g>
     </g>
     <g id="text_12">
      <!-- 2.5 -->
      <g transform="translate(57.0995 323.6535) scale(0.144 -0.144)">
       <use xlink:href="#DejaVuSans-32"/>
       <use xlink:href="#DejaVuSans-2e" x="63.623047"/>
       <use xlink:href="#DejaVuSans-35" x="95.410156"/>
      </g>
     </g>
    </g>
    <g id="ytick_3">
     <g id="line2d_13">
      <g>
       <use xlink:href="#m3fb77a0b2d" x="90" y="250.56" style="stroke: #000000; stroke-width: 2"/>
      </g>
     </g>
     <g id="text_13">
      <!-- 3.0 -->
      <g transform="translate(57.0995 254.5335) scale(0.144 -0.144)">
       <use xlink:href="#DejaVuSans-33"/>
       <use xlink:href="#DejaVuSans-2e" x="63.623047"/>
       <use xlink:href="#DejaVuSans-30" x="95.410156"/>
      </g>
     </g>
    </g>
    <g id="ytick_4">
     <g id="line2d_14">
      <g>
       <use xlink:href="#m3fb77a0b2d" x="90" y="181.44" style="stroke: #000000; stroke-width: 2"/>
      </g>
     </g>
     <g id="text_14">
      <!-- 3.5 -->
      <g transform="translate(57.0995 185.4135) scale(0.144 -0.144)">
       <use xlink:href="#DejaVuSans-33"/>
       <use xlink:href="#DejaVuSans-2e" x="63.623047"/>
       <use xlink:href="#DejaVuSans-35" x="95.410156"/>
      </g>
     </g>
    </g>
    <g id="ytick_5">
     <g id="line2d_15">
      <g>
       <use xlink:href="#m3fb77a0b2d" x="90" y="112.32" style="stroke: #000000; stroke-width: 2"/>
      </g>
     </g>
     <g id="text_15">
      <!-- 4.0 -->
      <g transform="translate(57.0995 116.2935) scale(0.144 -0.144)">
       <use xlink:href="#DejaVuSans-34"/>
       <use xlink:href="#DejaVuSans-2e" x="63.623047"/>
       <use xlink:href="#DejaVuSans-30" x="95.410156"/>
      </g>
     </g>
    </g>
    <g id="ytick_6">
     <g id="line2d_16">
      <g>
       <use xlink:href="#m3fb77a0b2d" x="90" y="43.2" style="stroke: #000000; stroke-width: 2"/>
      </g>
     </g>
     <g id="text_16">
      <!-- 4.5 -->
      <g transform="translate(57.0995 47.1735) scale(0.144 -0.144)">
       <use xlink:href="#DejaVuSans-34"/>
       <use xlink:href="#DejaVuSans-2e" x="63.623047"/>
       <use xlink:href="#DejaVuSans-35" x="95.410156"/>
      </g>
     </g>
    </g>
    <g id="text_17">
     <!-- Negative Mean Squared Error -->
     <g transform="translate(49.510125 316.32375) rotate(-90) scale(0.12 -0.12)">
      <defs>
       <path id="DejaVuSans-Bold-67" d="M 2919 594 
Q 2688 288 2409 144 
Q 2131 0 1766 0 
Q 1125 0 706 504 
Q 288 1009 288 1791 
Q 288 2575 706 3076 
Q 1125 3578 1766 3578 
Q 2131 3578 2409 3434 
Q 2688 3291 2919 2981 
L 2919 3500 
L 4044 3500 
L 4044 353 
Q 4044 -491 3511 -936 
Q 2978 -1381 1966 -1381 
Q 1638 -1381 1331 -1331 
Q 1025 -1281 716 -1178 
L 716 -306 
Q 1009 -475 1290 -558 
Q 1572 -641 1856 -641 
Q 2406 -641 2662 -400 
Q 2919 -159 2919 353 
L 2919 594 
z
M 2181 2772 
Q 1834 2772 1640 2515 
Q 1447 2259 1447 1791 
Q 1447 1309 1634 1061 
Q 1822 813 2181 813 
Q 2531 813 2725 1069 
Q 2919 1325 2919 1791 
Q 2919 2259 2725 2515 
Q 2531 2772 2181 2772 
z
" transform="scale(0.015625)"/>
       <path id="DejaVuSans-Bold-69" d="M 538 3500 
L 1656 3500 
L 1656 0 
L 538 0 
L 538 3500 
z
M 538 4863 
L 1656 4863 
L 1656 3950 
L 538 3950 
L 538 4863 
z
" transform="scale(0.015625)"/>
       <path id="DejaVuSans-Bold-76" d="M 97 3500 
L 1216 3500 
L 2088 1081 
L 2956 3500 
L 4078 3500 
L 2700 0 
L 1472 0 
L 97 3500 
z
" transform="scale(0.015625)"/>
       <path id="DejaVuSans-Bold-4d" d="M 588 4666 
L 2119 4666 
L 3181 2169 
L 4250 4666 
L 5778 4666 
L 5778 0 
L 4641 0 
L 4641 3413 
L 3566 897 
L 2803 897 
L 1728 3413 
L 1728 0 
L 588 0 
L 588 4666 
z
" transform="scale(0.015625)"/>
       <path id="DejaVuSans-Bold-6e" d="M 4056 2131 
L 4056 0 
L 2931 0 
L 2931 347 
L 2931 1631 
Q 2931 2084 2911 2256 
Q 2891 2428 2841 2509 
Q 2775 2619 2662 2680 
Q 2550 2741 2406 2741 
Q 2056 2741 1856 2470 
Q 1656 2200 1656 1722 
L 1656 0 
L 538 0 
L 538 3500 
L 1656 3500 
L 1656 2988 
Q 1909 3294 2193 3439 
Q 2478 3584 2822 3584 
Q 3428 3584 3742 3212 
Q 4056 2841 4056 2131 
z
" transform="scale(0.015625)"/>
       <path id="DejaVuSans-Bold-53" d="M 3834 4519 
L 3834 3531 
Q 3450 3703 3084 3790 
Q 2719 3878 2394 3878 
Q 1963 3878 1756 3759 
Q 1550 3641 1550 3391 
Q 1550 3203 1689 3098 
Q 1828 2994 2194 2919 
L 2706 2816 
Q 3484 2659 3812 2340 
Q 4141 2022 4141 1434 
Q 4141 663 3683 286 
Q 3225 -91 2284 -91 
Q 1841 -91 1394 -6 
Q 947 78 500 244 
L 500 1259 
Q 947 1022 1364 901 
Q 1781 781 2169 781 
Q 2563 781 2772 912 
Q 2981 1044 2981 1288 
Q 2981 1506 2839 1625 
Q 2697 1744 2272 1838 
L 1806 1941 
Q 1106 2091 782 2419 
Q 459 2747 459 3303 
Q 459 4000 909 4375 
Q 1359 4750 2203 4750 
Q 2588 4750 2994 4692 
Q 3400 4634 3834 4519 
z
" transform="scale(0.015625)"/>
       <path id="DejaVuSans-Bold-71" d="M 2181 2772 
Q 1825 2772 1636 2509 
Q 1447 2247 1447 1747 
Q 1447 1247 1636 984 
Q 1825 722 2181 722 
Q 2541 722 2730 984 
Q 2919 1247 2919 1747 
Q 2919 2247 2730 2509 
Q 2541 2772 2181 2772 
z
M 2919 506 
Q 2688 197 2409 53 
Q 2131 -91 1766 -91 
Q 1119 -91 703 423 
Q 288 938 288 1747 
Q 288 2556 703 3067 
Q 1119 3578 1766 3578 
Q 2131 3578 2409 3434 
Q 2688 3291 2919 2981 
L 2919 3500 
L 4044 3500 
L 4044 -1331 
L 2919 -1331 
L 2919 506 
z
" transform="scale(0.015625)"/>
       <path id="DejaVuSans-Bold-64" d="M 2919 2988 
L 2919 4863 
L 4044 4863 
L 4044 0 
L 2919 0 
L 2919 506 
Q 2688 197 2409 53 
Q 2131 -91 1766 -91 
Q 1119 -91 703 423 
Q 288 938 288 1747 
Q 288 2556 703 3070 
Q 1119 3584 1766 3584 
Q 2128 3584 2408 3439 
Q 2688 3294 2919 2988 
z
M 2181 722 
Q 2541 722 2730 984 
Q 2919 1247 2919 1747 
Q 2919 2247 2730 2509 
Q 2541 2772 2181 2772 
Q 1825 2772 1636 2509 
Q 1447 2247 1447 1747 
Q 1447 1247 1636 984 
Q 1825 722 2181 722 
z
" transform="scale(0.015625)"/>
       <path id="DejaVuSans-Bold-45" d="M 588 4666 
L 3834 4666 
L 3834 3756 
L 1791 3756 
L 1791 2888 
L 3713 2888 
L 3713 1978 
L 1791 1978 
L 1791 909 
L 3903 909 
L 3903 0 
L 588 0 
L 588 4666 
z
" transform="scale(0.015625)"/>
      </defs>
      <use xlink:href="#DejaVuSans-Bold-4e"/>
      <use xlink:href="#DejaVuSans-Bold-65" x="83.691406"/>
      <use xlink:href="#DejaVuSans-Bold-67" x="151.513672"/>
      <use xlink:href="#DejaVuSans-Bold-61" x="223.095703"/>
      <use xlink:href="#DejaVuSans-Bold-74" x="290.576172"/>
      <use xlink:href="#DejaVuSans-Bold-69" x="338.378906"/>
      <use xlink:href="#DejaVuSans-Bold-76" x="372.65625"/>
      <use xlink:href="#DejaVuSans-Bold-65" x="437.841797"/>
      <use xlink:href="#DejaVuSans-Bold-20" x="505.664062"/>
      <use xlink:href="#DejaVuSans-Bold-4d" x="540.478516"/>
      <use xlink:href="#DejaVuSans-Bold-65" x="639.990234"/>
      <use xlink:href="#DejaVuSans-Bold-61" x="707.8125"/>
      <use xlink:href="#DejaVuSans-Bold-6e" x="775.292969"/>
      <use xlink:href="#DejaVuSans-Bold-20" x="846.484375"/>
      <use xlink:href="#DejaVuSans-Bold-53" x="881.298828"/>
      <use xlink:href="#DejaVuSans-Bold-71" x="953.320312"/>
      <use xlink:href="#DejaVuSans-Bold-75" x="1024.902344"/>
      <use xlink:href="#DejaVuSans-Bold-61" x="1096.09375"/>
      <use xlink:href="#DejaVuSans-Bold-72" x="1163.574219"/>
      <use xlink:href="#DejaVuSans-Bold-65" x="1212.890625"/>
      <use xlink:href="#DejaVuSans-Bold-64" x="1280.712891"/>
      <use xlink:href="#DejaVuSans-Bold-20" x="1352.294922"/>
      <use xlink:href="#DejaVuSans-Bold-45" x="1387.109375"/>
      <use xlink:href="#DejaVuSans-Bold-72" x="1455.419922"/>
      <use xlink:href="#DejaVuSans-Bold-72" x="1504.736328"/>
      <use xlink:href="#DejaVuSans-Bold-6f" x="1554.052734"/>
      <use xlink:href="#DejaVuSans-Bold-72" x="1622.753906"/>
     </g>
    </g>
   </g>
  </g>
 </g>
 <defs>
  <clipPath id="p7fa12931e0">
   <rect x="90" y="43.2" width="558" height="345.6"/>
  </clipPath>
 </defs>
</svg>
